<?xml version="1.0"?>
<svg xmlns="http://www.w3.org/2000/svg" xmlns:xlink="http://www.w3.org/1999/xlink" xmlns:svgjs="http://svgjs.com/svgjs" version="1.1" width="512" height="512" x="0" y="0" viewBox="0 0 512 512" style="enable-background:new 0 0 512 512" xml:space="preserve" class=""><g><path xmlns="http://www.w3.org/2000/svg" d="m480 323.84a10.03545 10.03545 0 0 1 -2.93994 7.1l-37.06006 37.06-31.56006 36.82007a54.91058 54.91058 0 0 1 -80.52 3.09985l-11.51994-11.52002a28.06466 28.06466 0 0 1 -11.93 11.3701l-.47.23-8 24h-80l-8-24-.47-.23a28.23985 28.23985 0 0 1 -11.93-11.3701l-11.5199 11.52a54.91058 54.91058 0 0 1 -80.52-3.09985l-31.5601-36.82005-37.06006-37.06006a10.03133 10.03133 0 0 1 8.74-16.99l36.32006 6.05006 5.27-10.53a9.88545 9.88545 0 0 1 18.73 4.42v30.11l40 32 38.41992-44.83008a32.01614 32.01614 0 0 1 24.30008-11.16992h98.56a32.01614 32.01614 0 0 1 24.30005 11.16992l38.41995 44.83008 40-32v-30.11a9.88545 9.88545 0 0 1 18.73-4.42l5.27 10.53 36.32007-6.05a10.5548 10.5548 0 0 1 1.66992-.13989 10.03112 10.03112 0 0 1 10.01001 10.02989z" fill="#ffceb6" data-original="#ffceb6" style="" class=""/><path xmlns="http://www.w3.org/2000/svg" d="m440 368-31.56006 36.82007a54.91058 54.91058 0 0 1 -80.52 3.09985l-11.51994-11.52002a28.06466 28.06466 0 0 1 -11.93 11.3701l-.47.23-8 24h-80l-8-24-.47-.23a28.23985 28.23985 0 0 1 -11.93-11.3701l-11.5199 11.52a54.91058 54.91058 0 0 1 -80.52-3.09985l-31.5601-36.82005 32-24 40 32 38.41992-44.83008a32.01614 32.01614 0 0 1 24.30008-11.16992h98.56a32.01614 32.01614 0 0 1 24.30005 11.16992l38.41995 44.83008 40-32z" fill="#ffc431" data-original="#ffc431" style="" class=""/><path xmlns="http://www.w3.org/2000/svg" d="m248 368h16v64h-16z" fill="#ffb401" data-original="#ffb401" style="" class=""/><path xmlns="http://www.w3.org/2000/svg" d="m216 320a32 32 0 0 1 -32-32 24 24 0 0 0 24-24v-.00008a55.99994 55.99994 0 0 1 55.99994-55.99992h.00012a55.99994 55.99994 0 0 1 55.99994 55.99994v24.00006a32 32 0 0 1 -32 32z" fill="#c47220" data-original="#c47220" style=""/><path xmlns="http://www.w3.org/2000/svg" d="m232 280h48v64h-48z" fill="#ffceb6" data-original="#ffceb6" style="" class=""/><path xmlns="http://www.w3.org/2000/svg" d="m280 280v48h-8a32.00409 32.00409 0 0 1 -32-32v-16z" fill="#ffbfa1" data-original="#ffbfa1" style=""/><path xmlns="http://www.w3.org/2000/svg" d="m280 344-24 48-24-48z" fill="#ffe28f" data-original="#ffe28f" style=""/><path xmlns="http://www.w3.org/2000/svg" d="m196.10312 396.11564a7.5678 7.5678 0 0 1 -11.04693-4.82389 36.07059 36.07059 0 0 1 2.75533-24.803l1.65716-3.31432a7.54907 7.54907 0 0 1 10.12814-3.376 8.45075 8.45075 0 0 1 3.77937 11.33773l-1.25413 2.50838a20.0824 20.0824 0 0 0 -1.70682 13.04771 8.78232 8.78232 0 0 1 -4.31212 9.42339z" fill="#ffb401" data-original="#ffb401" style="" class=""/><path xmlns="http://www.w3.org/2000/svg" d="m216 432-24 64h128l-24-64z" fill="#548aff" data-original="#548aff" style="" class=""/><path xmlns="http://www.w3.org/2000/svg" d="m315.89661 396.11575a8.7827 8.7827 0 0 1 -4.31192-9.424 20.07838 20.07838 0 0 0 -1.70675-13.04669l-1.25434-2.50893a8.45078 8.45078 0 0 1 3.77945-11.33761 7.54907 7.54907 0 0 1 10.1282 3.37618l1.65723 3.31461a36.06912 36.06912 0 0 1 2.75521 24.80294 7.56782 7.56782 0 0 1 -11.04708 4.8235z" fill="#ffb401" data-original="#ffb401" style="" class=""/><path xmlns="http://www.w3.org/2000/svg" d="m152 216a64 64 0 1 1 -64-64 63.74288 63.74288 0 0 1 64 64z" fill="#548aff" data-original="#548aff" style="" class=""/><path xmlns="http://www.w3.org/2000/svg" d="m136 240v18.34a64.02065 64.02065 0 0 1 -104-11.33v-7.01a15.99552 15.99552 0 0 1 16-16h72a15.99552 15.99552 0 0 1 16 16z" fill="#ffb401" data-original="#ffb401" style="" class=""/><path xmlns="http://www.w3.org/2000/svg" d="m96 208v36a12 12 0 1 1 -24 0v-36z" fill="#ffceb6" data-original="#ffceb6" style="" class=""/><path xmlns="http://www.w3.org/2000/svg" d="m96 208v32h-4a11.99669 11.99669 0 0 1 -12-12v-20z" fill="#ffbfa1" data-original="#ffbfa1" style=""/><path xmlns="http://www.w3.org/2000/svg" d="m264 320a32 32 0 0 0 32-32v-16l-24-24a35.09935 35.09935 0 0 1 -33.29816 24h-6.70184v16a32 32 0 0 0 32 32z" fill="#ffceb6" data-original="#ffceb6" style="" class=""/><path xmlns="http://www.w3.org/2000/svg" d="m88 232a16 16 0 0 1 -16-16v-8l16-8h16v16a16 16 0 0 1 -16 16z" fill="#ffceb6" data-original="#ffceb6" style="" class=""/><path xmlns="http://www.w3.org/2000/svg" d="m104 200 4.68629-4.68629a11.31372 11.31372 0 0 0 3.31371-8 11.31369 11.31369 0 0 0 -11.3137-11.31371h-12.6863a16 16 0 0 0 -16 16v16l16-8z" fill="#c47220" data-original="#c47220" style=""/><path xmlns="http://www.w3.org/2000/svg" d="m240 88a64 64 0 1 1 -64-64 63.74288 63.74288 0 0 1 64 64z" fill="#548aff" data-original="#548aff" style="" class=""/><path xmlns="http://www.w3.org/2000/svg" d="m224 112v18.34a64.02065 64.02065 0 0 1 -104-11.33v-7.01a15.99552 15.99552 0 0 1 16-16h72a15.99552 15.99552 0 0 1 16 16z" fill="#02c26a" data-original="#02c26a" style=""/><path xmlns="http://www.w3.org/2000/svg" d="m184 80v36a12 12 0 1 1 -24 0v-36z" fill="#ffceb6" data-original="#ffceb6" style="" class=""/><path xmlns="http://www.w3.org/2000/svg" d="m184 80v32h-4a11.99669 11.99669 0 0 1 -12-12v-20z" fill="#ffbfa1" data-original="#ffbfa1" style=""/><path xmlns="http://www.w3.org/2000/svg" d="m176 104a16 16 0 0 1 -16-16v-8l16-8h16v16a16 16 0 0 1 -16 16z" fill="#ffceb6" data-original="#ffceb6" style="" class=""/><path xmlns="http://www.w3.org/2000/svg" d="m192 72 4.68629-4.68629a11.31372 11.31372 0 0 0 3.31371-8 11.31369 11.31369 0 0 0 -11.3137-11.31371h-12.6863a16 16 0 0 0 -16 16v16l16-8z" fill="#c47220" data-original="#c47220" style=""/><path xmlns="http://www.w3.org/2000/svg" d="m400 88a64 64 0 1 1 -64-64 63.74288 63.74288 0 0 1 64 64z" fill="#548aff" data-original="#548aff" style="" class=""/><path xmlns="http://www.w3.org/2000/svg" d="m384 112v18.34a64.02065 64.02065 0 0 1 -104-11.33v-7.01a15.99552 15.99552 0 0 1 16-16h72a15.99552 15.99552 0 0 1 16 16z" fill="#ffa100" data-original="#ffa100" style=""/><path xmlns="http://www.w3.org/2000/svg" d="m344 80v36a12 12 0 1 1 -24 0v-36z" fill="#ffceb6" data-original="#ffceb6" style="" class=""/><path xmlns="http://www.w3.org/2000/svg" d="m344 80v32h-4a11.99669 11.99669 0 0 1 -12-12v-20z" fill="#ffbfa1" data-original="#ffbfa1" style=""/><path xmlns="http://www.w3.org/2000/svg" d="m336 104a16 16 0 0 1 -16-16v-8l16-8h16v16a16 16 0 0 1 -16 16z" fill="#ffceb6" data-original="#ffceb6" style="" class=""/><path xmlns="http://www.w3.org/2000/svg" d="m352 72 4.68629-4.68629a11.31372 11.31372 0 0 0 3.31371-8 11.31369 11.31369 0 0 0 -11.3137-11.31371h-12.6863a16 16 0 0 0 -16 16v16l16-8z" fill="#c47220" data-original="#c47220" style=""/><path xmlns="http://www.w3.org/2000/svg" d="m488 216a64 64 0 1 1 -64-64 63.74288 63.74288 0 0 1 64 64z" fill="#548aff" data-original="#548aff" style="" class=""/><path xmlns="http://www.w3.org/2000/svg" d="m472 240v18.34a64.02065 64.02065 0 0 1 -104-11.33v-7.01a15.99552 15.99552 0 0 1 16-16h72a15.99552 15.99552 0 0 1 16 16z" fill="#ef5e3b" data-original="#ef5e3b" style=""/><path xmlns="http://www.w3.org/2000/svg" d="m432 208v36a12 12 0 1 1 -24 0v-36z" fill="#ffceb6" data-original="#ffceb6" style="" class=""/><path xmlns="http://www.w3.org/2000/svg" d="m432 208v32h-4a11.99669 11.99669 0 0 1 -12-12v-20z" fill="#ffbfa1" data-original="#ffbfa1" style=""/><path xmlns="http://www.w3.org/2000/svg" d="m424 232a16 16 0 0 1 -16-16v-8l16-8h16v16a16 16 0 0 1 -16 16z" fill="#ffceb6" data-original="#ffceb6" style="" class=""/><path xmlns="http://www.w3.org/2000/svg" d="m440 200 4.68629-4.68629a11.31372 11.31372 0 0 0 3.31371-8 11.31369 11.31369 0 0 0 -11.3137-11.31371h-12.6863a16 16 0 0 0 -16 16v16l16-8z" fill="#c47220" data-original="#c47220" style=""/></g></svg>
