<?xml version="1.0"?>
<svg xmlns="http://www.w3.org/2000/svg" xmlns:xlink="http://www.w3.org/1999/xlink" xmlns:svgjs="http://svgjs.com/svgjs" version="1.1" width="512" height="512" x="0" y="0" viewBox="0 0 464 464" style="enable-background:new 0 0 512 512" xml:space="preserve" class=""><g><path xmlns="http://www.w3.org/2000/svg" d="m264 104h8v48h-8c-13.253906 0-24-10.746094-24-24s10.746094-24 24-24zm0 0" fill="#feb784" data-original="#feb784" style="" class=""/><path xmlns="http://www.w3.org/2000/svg" d="m416 48c26.507812 0 48 21.492188 48 48v120c-26.507812 0-48-21.492188-48-48zm0 0" fill="#803f37" data-original="#803f37" style="" class=""/><path xmlns="http://www.w3.org/2000/svg" d="m424 256h-40c-4.417969 0-8-3.582031-8-8v-56h-64v56c0 4.417969-3.582031 8-8 8h-40c-22.089844 0-40 17.910156-40 40v168h240v-168c0-22.089844-17.910156-40-40-40zm0 0" fill="#fec9a3" data-original="#fec9a3" style="" class=""/><path xmlns="http://www.w3.org/2000/svg" d="m376 224.425781v-32.425781h-64v32.425781c20.136719 10.101563 43.863281 10.101563 64 0zm0 0" fill="#feb784" data-original="#feb784" style="" class=""/><path xmlns="http://www.w3.org/2000/svg" d="m424 256h-32l-48 104-48-104h-32c-22.089844 0-40 17.910156-40 40v168h240v-168c0-22.089844-17.910156-40-40-40zm0 0" fill="#0caa41" data-original="#348fd9" style="" class=""/><path xmlns="http://www.w3.org/2000/svg" d="m279.3125 464h-16v-53.175781c-20.644531-25.765625-20.441406-62.464844.488281-88l12.230469 10.320312c-16.574219 20.472657-15.976562 49.910157 1.410156 69.695313 1.207032 1.441406 1.871094 3.261718 1.871094 5.144531zm0 0" fill="#f1c40e" data-original="#2a71ad" style="" class=""/><path xmlns="http://www.w3.org/2000/svg" d="m424 464h-16v-56c0-1.882812.664062-3.703125 1.871094-5.144531 17.386718-19.785157 17.984375-49.222657 1.410156-69.695313l12.230469-10.320312c20.929687 25.535156 21.132812 62.234375.488281 88zm0 0" fill="#f1c40e" data-original="#2a71ad" style="" class=""/><path xmlns="http://www.w3.org/2000/svg" d="m344 216c-39.765625 0-72-32.234375-72-72v-68.921875c24-32 112-40 144 0v68.921875c0 39.765625-32.234375 72-72 72zm0 0" fill="#fec9a3" data-original="#fec9a3" style="" class=""/><path xmlns="http://www.w3.org/2000/svg" d="m329.601562 48.96875c20.820313 1.359375 40.3125 10.714844 54.398438 26.109375v68.921875c-.023438 33.582031-23.257812 62.6875-56 70.152344 21.359375 4.941406 43.808594-.148438 60.949219-13.8125 17.144531-13.667969 27.105469-34.414063 27.050781-56.339844v-68.921875c-18.121094-22.644531-54.183594-29.886719-86.398438-26.109375zm0 0" fill="#fec093" data-original="#fec093" style="" class=""/><path xmlns="http://www.w3.org/2000/svg" d="m308 104c-6.628906 0-12 5.371094-12 12s5.371094 12 12 12 12-5.371094 12-12-5.371094-12-12-12zm0 0" fill="#662c26" data-original="#662c26" style=""/><path xmlns="http://www.w3.org/2000/svg" d="m380 104c-6.628906 0-12 5.371094-12 12s5.371094 12 12 12 12-5.371094 12-12-5.371094-12-12-12zm0 0" fill="#662c26" data-original="#662c26" style=""/><path xmlns="http://www.w3.org/2000/svg" d="m336 0c-44.183594 0-80 35.816406-80 80v40c44.886719-10.496094 85.769531-14.175781 118.777344-41.183594l18.109375-14.816406 39.113281 40v-24c0-44.183594-35.816406-80-80-80zm0 0" fill="#803f37" data-original="#803f37" style="" class=""/><path xmlns="http://www.w3.org/2000/svg" d="m416 104h8c13.253906 0 24 10.746094 24 24s-10.746094 24-24 24h-8zm0 0" fill="#feb784" data-original="#feb784" style="" class=""/><path xmlns="http://www.w3.org/2000/svg" d="m344 176c-13.253906 0-24-10.746094-24-24h16c0 4.417969 3.582031 8 8 8s8-3.582031 8-8h16c0 13.253906-10.746094 24-24 24zm0 0" fill="#f7a468" data-original="#f7a468" style=""/><path xmlns="http://www.w3.org/2000/svg" d="m296 256-24 32 32 16-16 16 56 40zm0 0" fill="#4db7e5" data-original="#4db7e5" style="" class=""/><path xmlns="http://www.w3.org/2000/svg" d="m392 256 24 32-32 16 16 16-56 40zm0 0" fill="#4db7e5" data-original="#4db7e5" style="" class=""/><path xmlns="http://www.w3.org/2000/svg" d="m336 360h16v104h-16zm0 0" fill="#f1c40e" data-original="#2a71ad" style="" class=""/><path xmlns="http://www.w3.org/2000/svg" d="m304 376h16v16h-16zm0 0" fill="#f1c40e" data-original="#2a71ad" style="" class=""/><path xmlns="http://www.w3.org/2000/svg" d="m304 424h16v16h-16zm0 0" fill="#f1c40e" data-original="#2a71ad" style="" class=""/><path xmlns="http://www.w3.org/2000/svg" d="m24 128h176c13.253906 0 24 10.746094 24 24v288c0 13.253906-10.746094 24-24 24h-176c-13.253906 0-24-10.746094-24-24v-288c0-13.253906 10.746094-24 24-24zm0 0" fill="#dee1df" data-original="#e94f4f" style="" class=""/><path xmlns="http://www.w3.org/2000/svg" d="m32 192h160v48h-160zm0 0" fill="#0caa41" data-original="#60d1e0" style="" class=""/><g xmlns="http://www.w3.org/2000/svg" fill="#f98500"><path d="m32 272h32v32h-32zm0 0" fill="#f98500" data-original="#f98500" style="" class=""/><path d="m96 272h32v32h-32zm0 0" fill="#f98500" data-original="#f98500" style="" class=""/><path d="m160 272h32v32h-32zm0 0" fill="#f98500" data-original="#f98500" style="" class=""/><path d="m32 336h32v32h-32zm0 0" fill="#f98500" data-original="#f98500" style="" class=""/><path d="m96 336h32v32h-32zm0 0" fill="#f98500" data-original="#f98500" style="" class=""/><path d="m160 336h32v96h-32zm0 0" fill="#f98500" data-original="#f98500" style="" class=""/><path d="m32 400h32v32h-32zm0 0" fill="#f98500" data-original="#f98500" style="" class=""/><path d="m96 400h32v32h-32zm0 0" fill="#f98500" data-original="#f98500" style="" class=""/></g><path xmlns="http://www.w3.org/2000/svg" d="m128 160h-96v-136c0-13.253906 10.746094-24 24-24h96c-13.253906 0-24 10.746094-24 24zm0 0" fill="#0caa41" data-original="#60d1e0" style="" class=""/><path xmlns="http://www.w3.org/2000/svg" d="m152 0c13.253906 0 24 10.746094 24 24v24h-48v-24c0-13.253906 10.746094-24 24-24zm0 0" fill="#5ac6d4" data-original="#5ac6d4" style="" class=""/><path xmlns="http://www.w3.org/2000/svg" d="m56 120h48v16h-48zm0 0" fill="#8ed6df" data-original="#3fb7c7" style="" class=""/><path xmlns="http://www.w3.org/2000/svg" d="m56 88h48v16h-48zm0 0" fill="#8ed6df" data-original="#3fb7c7" style="" class=""/><path xmlns="http://www.w3.org/2000/svg" d="m56 56h48v16h-48zm0 0" fill="#8ed6df" data-original="#3fb7c7" style="" class=""/><path xmlns="http://www.w3.org/2000/svg" d="m56 24h48v16h-48zm0 0" fill="#8ed6df" data-original="#3fb7c7" style="" class=""/><path xmlns="http://www.w3.org/2000/svg" d="m32 192h160v16h-160zm0 0" fill="#5ac6d4" data-original="#5ac6d4" style="" class=""/></g></svg>
