<?xml version="1.0"?>
<svg xmlns="http://www.w3.org/2000/svg" xmlns:xlink="http://www.w3.org/1999/xlink" version="1.1" id="Capa_1" x="0px" y="0px" viewBox="0 0 61.338 61.338" style="enable-background:new 0 0 61.338 61.338;" xml:space="preserve" width="512px" height="512px" class=""><g><g>
	<path d="M61.029,33.276c0.032-0.268-0.119-0.556-0.472-0.555c-1.868,0.005-3.736-0.004-5.604-0.013   c-0.013-0.036-0.018-0.07-0.04-0.106c-0.598-0.997-0.993-2.076-0.967-3.253c0.026-1.179,0.668-1.977,0.972-3.052   c0.044-0.156,0.023-0.306-0.037-0.439c0.046-0.187,0.016-0.398-0.161-0.595c-0.895-0.999-1.44-2.287-1.561-3.627   c-0.114-1.269,0.367-2.273,0.611-3.467c0.004-0.017,0-0.034,0.002-0.051c1.946,0.113,3.892,0.268,5.835,0.482   c0.185,0.02,0.302-0.062,0.367-0.179c0.399,0.421,1.214,0.049,1.032-0.579c-0.353-1.22-0.575-2.483-0.559-3.756   c0.014-1.081,0.433-2.109,0.266-3.171c-0.071-0.45-0.671-0.515-0.955-0.252c-0.071,0.066-0.128,0.143-0.19,0.217   c-0.007,0-0.012-0.003-0.019-0.003c-18.949,0.595-37.76-0.425-56.689-0.809c-0.225-0.005-0.361,0.108-0.42,0.256   c-0.531-0.024-1.097,0.269-1.5,0.627c-0.855,0.758-1.128,1.879-0.816,2.967c0.731,2.551,3.372,3.011,5.634,2.598   c0.922,0.4,2.043,0.352,3.031,0.451c0.248,0.025,0.503,0.057,0.756,0.088c-0.497,0.797-0.671,1.976-0.618,2.758   c0.119,1.763,0.781,3.586,1.979,4.911c-0.004,0-0.009,0.001-0.013,0.001c-0.493,0.044-0.477,0.694,0,0.756   c0.003,0,0.007,0.001,0.01,0.001c-0.837,0.657-1.125,2.14-1.102,3.098c0.015,0.629,0.132,1.263,0.4,1.834   c0.145,0.309,0.298,0.518,0.466,0.701c-2.793-0.13-5.58-0.202-8.35-0.134c-0.02-0.002-0.039,0-0.06,0.001   c-0.46,0.012-0.922,0.009-1.38,0.028c-0.276,0.011-0.36,0.436-0.068,0.501c0.192,0.043,0.39,0.072,0.583,0.113   c-0.697,0.877-0.953,2.248-1.105,3.263c-0.235,1.571-0.169,3.189,0.36,4.696c0.103,0.293,0.42,0.408,0.681,0.353   C1.396,39.968,1.473,39.992,1.56,40c1.729,0.154,3.528,0.386,5.333,0.549c-1.684,3.15-2.305,7.182,1.079,9.36   c-0.027,0.002-0.053,0.002-0.08,0.004c-0.557,0.035-0.55,0.814,0,0.861c7.281,0.626,14.693,0.175,22.001,0.318   c7.324,0.143,14.681,0.317,22.001,0.007c0.264-0.011,0.305-0.308,0.146-0.441c0.018-0.064,0.026-0.132,0.011-0.203   c-0.328-1.52-0.809-2.94-0.874-4.513c-0.058-1.418,0.341-2.739,0.358-4.129c0-0.026-0.012-0.045-0.02-0.066   c2.503,0.1,5.015,0.063,7.482-0.283c0.002,0,0.002-0.002,0.004-0.003c0.218,0.382,0.73,0.591,1.089,0.17   c0.793-0.931,0.565-1.813,0.151-2.886c-0.624-1.614-0.41-2.93,0.849-4.155C61.488,34.203,61.36,33.621,61.029,33.276z    M53.446,32.704c-7.587-0.051-15.175-0.207-22.757-0.414c-1.818-0.05-3.644-0.142-5.474-0.249   c-0.009-0.021-0.012-0.043-0.024-0.064c-0.991-1.668-1.314-3.613-0.24-5.323c0.018-0.029,0.026-0.062,0.04-0.093   c9.367,0.349,18.877,0.06,28.03-0.197c-0.367,0.511-0.583,1.129-0.679,1.786c-1.586-0.102-3.194-0.025-4.781,0.01   c-0.339,0.007-0.34,0.52,0,0.527c1.569,0.034,3.16,0.11,4.728,0.013c-0.027,0.593,0.032,1.204,0.171,1.792   c-1.407-0.008-2.844,0.232-4.231,0.413c-0.26,0.034-0.279,0.434,0,0.422c1.442-0.064,2.946-0.079,4.372-0.351   C52.804,31.616,53.085,32.215,53.446,32.704z M9.325,15.63c-1.228-0.148-2.678-0.583-3.863-0.147   c-0.03,0.011-0.045,0.035-0.071,0.05c-1.264-0.136-2.68-0.514-3.433-1.566c-0.42-0.587-0.521-1.354-0.141-1.99   c0.31-0.519,0.837-0.596,1.275-0.935c18.422,2.273,37.362,1.929,55.874,1.072c-0.059,0.22-0.099,0.447-0.132,0.675   c-1.42,0.03-2.871,0.264-4.272,0.398c-0.297,0.028-0.307,0.488,0,0.471c1.38-0.076,2.819-0.065,4.207-0.233   c-0.02,0.31-0.028,0.615-0.024,0.896c0.005,0.334,0.035,0.659,0.08,0.979c-1.648,0.213-3.195,0.273-4.876-0.071   c-0.308-0.063-0.439,0.388-0.131,0.475c1.644,0.461,3.448,0.627,5.133,0.265c0.14,0.595,0.345,1.169,0.617,1.728   c-15.781-1.971-31.674-1.049-47.523-1.574C11.194,15.785,10.238,15.74,9.325,15.63z M10.897,21.048   c-0.133-0.664-0.258-1.562-0.056-2.231c0.171-0.568,0.552-0.853,0.907-1.289c0.007-0.008,0.007-0.018,0.013-0.027   c13.367,1.22,26.784-0.063,40.155,0.527c-0.103,0.16-0.168,0.336-0.248,0.505c-2.138,0.244-4.219,0.358-6.385,0.046   c-0.315-0.045-0.459,0.43-0.135,0.488c2.057,0.368,4.182,0.501,6.251,0.181c-0.584,2.123,0.283,4.696,1.737,6.311   c-13.251-0.909-27.266-1.962-40.577-0.95C11.854,23.476,11.168,22.396,10.897,21.048z M23.682,31.943   c-0.814-0.052-1.626-0.099-2.441-0.155c-0.246-0.48-0.5-1.283-0.518-1.364c-0.101-0.456-0.142-0.918-0.144-1.385   c-0.003-0.911,0.374-1.781,0.319-2.674c0.72,0.043,1.445,0.07,2.167,0.104C22.204,28.246,22.339,30.516,23.682,31.943z    M18.217,26.212c-1.262,0.035-1.934,1.518-2.094,2.6c-0.142,0.96,0.025,1.88,0.521,2.656c-1.594-0.109-3.188-0.211-4.781-0.295   c-0.366-0.76-0.574-1.815-0.511-2.593c0.085-1.05,0.863-1.755,0.973-2.74c0.006-0.051-0.012-0.094-0.026-0.138   c0.05-0.012,0.099-0.027,0.144-0.053c2.361,0.277,4.753,0.472,7.155,0.632c-0.903,1.366-0.551,3.649,0.028,5.032   c0.044,0.105,0.112,0.236,0.197,0.378c-0.645-0.045-1.291-0.09-1.936-0.135c-0.462-0.78-0.624-1.739-0.359-2.615   c0.241-0.798,0.91-1.307,1.198-2.059C18.848,26.56,18.534,26.204,18.217,26.212z M5.843,38.855   c-1.416,0.01-2.821,0.046-4.176,0.037c-0.083-1.291-0.108-2.562,0.153-3.85c0.213-1.05,0.861-2.097,0.946-3.155   c1.436,0.272,2.892,0.486,4.356,0.676C5.51,34.058,5.037,36.813,5.843,38.855z M8.787,32.768c2.691,0.301,5.412,0.492,8.135,0.631   c-1.825,1.391-1.725,4.441-0.719,6.423c-0.823,0.003-1.648,0.004-2.469,0.008c-0.057-0.165-0.177-0.305-0.355-0.349   c-1.981-0.479-4.1-0.604-6.224-0.623C6.571,36.478,7.317,34.636,8.787,32.768z M45.895,43.968c1.332,0.07,2.682,0.085,4.018,0.055   c-0.101,0.388-0.179,0.787-0.215,1.199c-0.053-0.035-0.122-0.053-0.202-0.037c-1.325,0.256-2.584,0.401-3.933,0.362   c-0.22-0.007-0.28,0.358-0.053,0.394c1.357,0.215,2.811,0.163,4.125-0.254c0.017-0.005,0.02-0.021,0.035-0.028   c-0.025,0.831,0.07,1.68,0.282,2.475c-1.043,0.024-2.1,0.228-3.123,0.368c-0.273,0.037-0.21,0.503,0.065,0.483   c1.063-0.076,2.165-0.097,3.217-0.307c0.241,0.698,0.562,1.345,0.974,1.869c-7.046-0.425-14.134-0.43-21.19-0.453   c-7.101-0.023-14.281-0.601-21.372-0.211c0.049-0.101,0.058-0.222-0.038-0.32c-2.544-2.582-1.405-6.112,0.132-8.865   c13.521,1.41,28.059,2.558,41.611,1.505c0.339-0.026,0.514-0.25,0.546-0.493c0.128,0.007,0.256,0.014,0.384,0.02   c-0.491,0.479-0.837,1.09-1.079,1.763c-1.389-0.036-2.795-0.019-4.182,0.054C45.623,43.561,45.623,43.954,45.895,43.968z    M58.198,35.784c-1.21-0.045-2.449-0.006-3.636,0.089c-0.28,0.022-0.281,0.413,0,0.436c1.15,0.092,2.347,0.133,3.521,0.095   c-0.006,0.047-0.021,0.09-0.026,0.137c-0.06,0.568-0.025,1.149,0.118,1.704c-1.319,0.059-2.68,0.327-3.959,0.468   c-0.282,0.031-0.294,0.469,0,0.45c1.36-0.089,2.83-0.063,4.208-0.268c0.303,0.581,0.777,1.311,0.565,1.821   c-3.976-0.556-8.074-0.313-12.057,0.02c-9.767-0.849-19.836-0.94-29.733-0.918c-0.373-0.992-0.483-2.099-0.242-3.132   c0.248-1.063,0.927-1.782,1.382-2.729c0.083-0.172,0.087-0.341,0.045-0.491c3.818,0.171,7.627,0.258,11.344,0.408   c9.875,0.397,19.722,0.292,29.592-0.109C58.786,34.34,58.402,35.022,58.198,35.784z" data-original="#1D1D1B" class="active-path" data-old_color="#1D1D1B" fill="#0CAA41"/>
	<path d="M17.076,13.071c-1.674-0.315-3.41-0.108-5.11-0.134c-1.909-0.03-3.829-0.205-5.734-0.079   c-0.59,0.039-0.744,0.878-0.143,1.053c3.146,0.918,7.821,1.384,10.987,0.482C17.69,14.218,17.767,13.201,17.076,13.071z" data-original="#1D1D1B" class="active-path" data-old_color="#1D1D1B" fill="#0CAA41"/>
	<path d="M20.855,18.997c-0.07-0.23-0.254-0.444-0.498-0.498c-1.684-0.374-3.644-0.445-5.019,0.743   c-1.017,0.879-1.792,2.524-0.862,3.74c0.29,0.379,0.896,0.392,1.216,0.133c0.797,0.141,1.593,0.284,2.395,0.4   c0.735,0.107,1.737,0.44,2.439,0.065C21.935,22.829,21.206,20.158,20.855,18.997z M18.858,22.462   c-1.009-0.043-2.015-0.059-3.023-0.074c-1.018-2.571,1.951-2.591,3.794-2.512c0.137,0.459,0.242,0.922,0.277,1.407   C19.974,22.235,19.866,22.504,18.858,22.462z" data-original="#1D1D1B" class="active-path" data-old_color="#1D1D1B" fill="#0CAA41"/>
	<path d="M50.115,34.32c-0.82-0.237-1.835,0.061-2.656,0.166c-1.251,0.16-2.496,0.369-3.739,0.584   c-0.412,0.071-0.596,0.553-0.52,0.915c0.138,0.649,0.268,1.299,0.436,1.941l0.001,0.002c-0.132-0.009-0.265-0.014-0.397-0.024   c-0.503-0.036-0.611,0.771-0.119,0.881c2.552,0.569,5.154,0.746,7.764,0.644c0.386-0.015,0.705-0.312,0.708-0.708   C51.605,37.419,51.737,34.79,50.115,34.32z M44.912,38.004c0.065-0.13,0.105-0.278,0.079-0.452   c-0.056-0.383-0.135-0.762-0.208-1.142c1.284-0.194,2.57-0.381,3.859-0.544c0.622-0.079,0.853-0.268,1.241,0.247   c0.308,0.408,0.318,1.236,0.304,1.925C48.425,38.114,46.67,38.094,44.912,38.004z" data-original="#1D1D1B" class="active-path" data-old_color="#1D1D1B" fill="#0CAA41"/>
	<path d="M44.125,48.269c-0.143-0.476-0.222-0.947-0.213-1.445c0.01-0.516,0.169-0.926-0.088-1.406   c-0.004-0.007-0.012-0.01-0.017-0.018c0.075-0.338-0.11-0.731-0.578-0.76c-5.211-0.323-10.456-0.052-15.677-0.301   c-5.153-0.245-10.422-1.064-15.573-0.73c-0.14-0.114-0.301-0.192-0.49-0.17c-0.391,0.046-0.685,0.232-0.811,0.618   c-0.274,0.835-0.547,1.671-0.821,2.506c-0.144,0.438,0.203,0.798,0.587,0.894c-0.036,0.222,0.057,0.462,0.318,0.499   c10.627,1.523,21.659,1.854,32.355,0.856C43.466,49.261,44.303,48.862,44.125,48.269z M11.212,47.077   c0.335-0.791,0.67-1.581,1.004-2.371c0.06-0.141,0.086-0.28,0.091-0.416c4.61,1.119,9.551,1.161,14.267,1.342   c5.259,0.202,10.605,0.622,15.867,0.301c-0.124,0.565,0.014,1.248,0.224,1.857C32.134,47.951,21.73,47.745,11.212,47.077z" data-original="#1D1D1B" class="active-path" data-old_color="#1D1D1B" fill="#0CAA41"/>
	<path d="M51.557,23.454c-1.444-0.024-2.896,0.195-4.331,0.337c-0.345,0.034-0.356,0.572,0,0.549   c1.463-0.097,2.954-0.124,4.399-0.388C51.912,23.899,51.834,23.459,51.557,23.454z" data-original="#1D1D1B" class="active-path" data-old_color="#1D1D1B" fill="#0CAA41"/>
	<path d="M50.896,20.854c-1.557,0.072-3.112,0.283-4.662,0.443c-0.247,0.025-0.256,0.41,0,0.394   c1.552-0.1,3.118-0.15,4.662-0.338C51.205,21.315,51.224,20.839,50.896,20.854z" data-original="#1D1D1B" class="active-path" data-old_color="#1D1D1B" fill="#0CAA41"/>
</g></g> </svg>
