<?xml version="1.0"?>
<svg xmlns="http://www.w3.org/2000/svg" xmlns:xlink="http://www.w3.org/1999/xlink" xmlns:svgjs="http://svgjs.com/svgjs" version="1.1" width="512" height="512" x="0" y="0" viewBox="0 0 512 512" style="enable-background:new 0 0 512 512" xml:space="preserve" class=""><g><path xmlns="http://www.w3.org/2000/svg" d="m208 139.64014v72.35986l-48 24v36h-104l-17.25-60.37012a54.40131 54.40131 0 0 1 39.64014-91.62988h94.18994a32.0516 32.0516 0 0 1 20.26 7.23z" fill="#ffb401" data-original="#ffb401" style=""/><path xmlns="http://www.w3.org/2000/svg" d="m120 256a76.16632 76.16632 0 0 1 -33.8877-8l-46.13112-23.06472a8 8 0 0 1 -3.57763-10.73359 8 8 0 0 1 10.7329-3.57735l46.13112 23.06513a59.77859 59.77859 0 0 0 53.46582 0l63.53808-31.76953 7.15625 14.31055-63.53905 31.76951a76.17347 76.17347 0 0 1 -33.88867 8z" fill="#ffa100" data-original="#ffa100" style="" class=""/><path xmlns="http://www.w3.org/2000/svg" d="m272 192-31.258-25.575h-16.742v41.575h48z" fill="#ffb401" data-original="#ffb401" style=""/><path xmlns="http://www.w3.org/2000/svg" d="m40 392h120v104h-120z" fill="#ffceb6" data-original="#ffceb6" style=""/><path xmlns="http://www.w3.org/2000/svg" d="m188.35986 173.82007-36.58986 13.71993 13.88989-13.88013a8.00746 8.00746 0 0 0 -2.07983-12.82007l-12.66014-6.3198 11.02-2.76a8.00091 8.00091 0 0 0 6.06008-7.76v-24h-16v17.75l-24.98 6.25h-14.04l-24.98-6.25v-17.75h-9.60986a54.00932 54.00932 0 0 0 -6.39014.37988v23.62012a8.00091 8.00091 0 0 0 6.06006 7.76l11.02 2.76-12.66016 6.31982a8.00746 8.00746 0 0 0 -2.07983 12.82007l5.13993 5.14016-12.7399-6.37652a8.00354 8.00354 0 0 0 -10.74079 3.57777 8.00353 8.00353 0 0 0 3.57927 10.73791l56.84137 28.42069a8.02574 8.02574 0 0 0 6.39014.33008l71.16991-26.68993zm-76.35986 14.86987-18.5-18.5 18.5-9.25zm16 0v-27.75l18.5 9.25z" fill="#ffa100" data-original="#ffa100" style="" class=""/><path xmlns="http://www.w3.org/2000/svg" d="m136 104v16l-5.33 16-10.67 32-16-48v-16z" fill="#ffceb6" data-original="#ffceb6" style=""/><path xmlns="http://www.w3.org/2000/svg" d="m232 224 32-96-56-16-32 96z" fill="#e0edff" data-original="#e0edff" style="" class=""/><path xmlns="http://www.w3.org/2000/svg" d="m280 200-14.34315-14.34315a5.65684 5.65684 0 0 0 -4-1.65685 5.65685 5.65685 0 0 0 -5.65685 5.65685v10.34315h-32v24a16 16 0 0 0 16 16h24a16 16 0 0 0 16-16z" fill="#ffceb6" data-original="#ffceb6" style=""/><path xmlns="http://www.w3.org/2000/svg" d="m115.51 392.88-11.46 103.12h-16.1l11.55-104 .1-.88 7.96.88z" fill="#ffbfa1" data-original="#ffbfa1" style=""/><path xmlns="http://www.w3.org/2000/svg" d="m56 272h104v152h-120v-84.223a151.554 151.554 0 0 1 16-67.777z" fill="#0caa41" data-original="#548aff" style="" class=""/><path xmlns="http://www.w3.org/2000/svg" d="m472 304h-184l-48-40v40h-24a16 16 0 0 0 -16 16v144a16 16 0 0 0 16 16h256a16 16 0 0 0 16-16v-144a16 16 0 0 0 -16-16z" fill="#0caa41" data-original="#548aff" style="" class=""/><path xmlns="http://www.w3.org/2000/svg" d="m472 192h-88l-48 40v-40h-24a16 16 0 0 1 -16-16v-136a16 16 0 0 1 16-16h160a16 16 0 0 1 16 16v136a16 16 0 0 1 -16 16z" fill="#0caa41" data-original="#548aff" style="" class=""/><g xmlns="http://www.w3.org/2000/svg" fill="#4976f2"><path d="m336 352h24v16h-24z" fill="#4976f2" data-original="#4976f2" style="" class=""/><path d="m376 352h80v16h-80z" fill="#4976f2" data-original="#4976f2" style="" class=""/><path d="m336 384h48v16h-48z" fill="#4976f2" data-original="#4976f2" style="" class=""/><path d="m400 384h16v16h-16z" fill="#4976f2" data-original="#4976f2" style="" class=""/><path d="m432 384h24v16h-24z" fill="#4976f2" data-original="#4976f2" style="" class=""/><path d="m336 416h32v16h-32z" fill="#4976f2" data-original="#4976f2" style="" class=""/><path d="m384 416h72v16h-72z" fill="#4976f2" data-original="#4976f2" style="" class=""/></g><path xmlns="http://www.w3.org/2000/svg" d="m312 392a40 40 0 1 1 -40-40 39.87505 39.87505 0 0 1 40 40z" fill="#ffc431" data-original="#ffc431" style=""/><path xmlns="http://www.w3.org/2000/svg" d="m312 392h-40v-40a40.00166 40.00166 0 0 1 40 40z" fill="#ffb401" data-original="#ffb401" style=""/><path xmlns="http://www.w3.org/2000/svg" d="m344 120h32v40h-32z" fill="#ffa100" data-original="#ffa100" style="" class=""/><path xmlns="http://www.w3.org/2000/svg" d="m376 88h32v72h-32z" fill="#ffc431" data-original="#ffc431" style=""/><path xmlns="http://www.w3.org/2000/svg" d="m408 56h32v104h-32z" fill="#ffd873" data-original="#ffd873" style="" class=""/><path xmlns="http://www.w3.org/2000/svg" d="m136 104v16l-5.33008 16h-2.66992a24.00619 24.00619 0 0 1 -24-24v-8z" fill="#ffbfa1" data-original="#ffbfa1" style=""/><circle xmlns="http://www.w3.org/2000/svg" cx="96" cy="64" fill="#b66514" r="32" data-original="#b66514" style=""/><path xmlns="http://www.w3.org/2000/svg" d="m144 104v-24a24 24 0 0 0 -24-24 24 24 0 0 0 -24 24v24z" fill="#c47220" data-original="#c47220" style=""/><path xmlns="http://www.w3.org/2000/svg" d="m120 128a24 24 0 0 1 -24-24v-8h6.11147a28.94425 28.94425 0 0 0 25.88853-16l16 16v8a24 24 0 0 1 -24 24z" fill="#ffceb6" data-original="#ffceb6" style=""/><path xmlns="http://www.w3.org/2000/svg" d="m312 392a39.87505 39.87505 0 0 1 -11.72 28.28l-28.28-28.28z" fill="#f78e00" data-original="#f78e00" style=""/><path xmlns="http://www.w3.org/2000/svg" d="m320 152h144v16h-144z" fill="#7dafff" data-original="#7dafff" style=""/></g></svg>
