<?xml version="1.0"?>
<svg xmlns="http://www.w3.org/2000/svg" xmlns:xlink="http://www.w3.org/1999/xlink" xmlns:svgjs="http://svgjs.com/svgjs" version="1.1" width="512" height="512" x="0" y="0" viewBox="0 0 497 497" style="enable-background:new 0 0 512 512" xml:space="preserve" class=""><g><g xmlns="http://www.w3.org/2000/svg"><path d="m447.757 412.519c-12.877-9.026-130.273-49.368-130.273-49.368h-137.968s-64.865 22.291-103.451 37.441c-33.989 23.967-56.065 44.829-56.065 96.408h457c11.413 0 19.342-11.231 15.666-22.035-7.3-21.463-23.388-47.361-44.909-62.446z" fill="#0caa41" data-original="#ebb044" style="" class=""/><path d="m76.065 400.592c-13.321 5.23-23.517 9.611-26.822 11.927-21.521 15.085-37.608 40.983-44.909 62.446-3.676 10.804 4.253 22.035 15.666 22.035 0-24.912 22.076-72.441 56.065-96.408z" fill="#248d26" data-original="#e38523" style="" class=""/><path d="m156.188 338.022v33.251l92.312 53.095 92.312-53.095v-33.251z" fill="#c38778" data-original="#c38778" style="" class=""/><path d="m386.369 245.684c0-1.626 0-4.282 0-7.757 0-8.187 10-35.463 10-35.463s-10-25.745-10-38.898c0-1.456 0-2.907 0-4.351l-92.361-75.866h-160.809s-11.736 1.541-12.568 2.295v160.04c0 88.056 80.71 137.77 127.869 137.77 63.674 0 137.869-49.714 137.869-137.77z" fill="#ffcdbe" data-original="#ffcdbe" style="" class=""/><path d="m130.631 245.684c0-11.155 0-99.599 0-160.04-12.738 11.537-20 20.384-20 20.384v57.539c0 13.914-10 39.563-10 39.563s10 26.952 10 34.798v7.757c0 88.056 74.195 137.77 137.869 137.77-47.159-.001-117.869-49.715-117.869-137.771z" fill="#ebae9d" data-original="#ebae9d" style=""/><path d="m326.562 127.697 59.808 31.518c0-8.093 0-19.932 0-27.222 0 0-60.007-99.108-137.869-99.108-49.018 0-90.953 28.986-115.301 50.464l182.492 91.796c4.988 2.509 10.87-1.117 10.87-6.7z" fill="#ebae9d" data-original="#ebae9d" style=""/><path d="m190.848 77.429c18.079 9.094 145.714 63.296 145.714 63.296v-31.028l49.808 17.77c0-22.286 0-30.522 0-30.522h26.61c5.953 0 9.563-6.624 6.289-11.594-38.693-58.738-99.603-85.351-146.854-85.351-49.67 0-78.118 12.133-141.789 47.584l-10 38.161c12.541-15.533 45.429-20.787 70.222-8.316z" fill="#766d78" data-original="#766d78" style="" class=""/><path d="m190.848 67.429c-24.792-12.471-47.681-7.217-60.222 8.317v-28.162c-5.152 2.869-10.531 5.888-16.173 9.067-2.36 1.33-3.823 3.829-3.823 6.537v42.84h22.461c3.973 0 7.389-2.776 8.245-6.655 3.594-16.276 20.42-24.689 39.162-15.261 17.488 8.797 112.715 56.697 145.199 73.037 4.988 2.509 10.863-1.12 10.863-6.704v-9.721c-62.385-31.38-127.633-64.201-145.712-73.295z" fill="#544f56" data-original="#544f56" style=""/><path d="m272.806 241.807-12.16-28.352c-4.368-10.184-19.925-10.184-24.292 0l-12.16 28.352c-3.376 7.872-.718 16.712 8.751 20.688s21.641 3.976 31.11 0 12.127-12.816 8.751-20.688z" fill="#ebae9d" data-original="#ebae9d" style=""/><path d="m91.48 383.336c34.992 6.598 128.115 16.568 128.115 16.568s-78.046-64.268-103.372-85.123c-15.565-12.817-36.174-5.356-36.174 17.828-14.418 16.174-11.566 46.391 11.431 50.727z" fill="#fff0af" data-original="#fff0af" style="" class=""/><path d="m101.48 378.336c-22.997-4.336-31.61-27.238-21.431-45.726-26.864 21.344-18.062 58.28 10.243 63.617 44.072 8.31 142.593 26.885 156.551 29.517.862.163 1.657-.499 1.657-1.376 0-.418-.182-.81-.504-1.076-2.436-2.006-13.476-11.097-28.401-23.387-31.899-5.888-83.122-14.971-118.115-21.569z" fill="#ffd064" data-original="#ffd064" style=""/><path d="m416.951 332.61c0-23.184-20.609-30.646-36.174-17.828-25.282 20.819-74.452 61.308-103.221 84.999 34.744 5.388 123.32-14.253 154.765-28.487 2.765-12.764-1.624-27.762-15.37-38.684z" fill="#fff0af" data-original="#fff0af" style="" class=""/><path d="m248.5 424.368c0 .877.794 1.539 1.657 1.376 13.986-2.637 112.889-21.285 156.551-29.517 13.822-2.606 22.974-12.753 25.613-24.933-52.106 9.824-135.01 24.841-154.765 28.487-15.001 12.352-26.107 21.498-28.551 23.511-.323.265-.505.657-.505 1.076z" fill="#ffd064" data-original="#ffd064" style=""/><path d="m386.369 131.993c0 5.646-6.002 9.267-10.997 6.635l-132.613-69.886c-3.664-1.931-5.069-6.467-3.138-10.132 1.93-3.665 6.464-5.069 10.132-3.139l136.616 71.996z" fill="#544f56" data-original="#544f56" style=""/><path d="m304.474 337.93c-4.143 0-7.5-3.358-7.5-7.5s3.357-7.5 7.5-7.5c68.296 0 104.396-25.731 104.396-74.412 0-4.142 15-27.813 15-27.813s0 23.671 0 27.813c0 26.502-9.655 48.562-27.923 63.792-20.388 17-51.165 25.62-91.473 25.62z" fill="#766d78" data-original="#766d78" style="" class=""/><g fill="#544f56"><path d="m200.191 220.705c-4.143 0-7.5-3.358-7.5-7.5v-16.757c0-4.142 3.357-7.5 7.5-7.5s7.5 3.358 7.5 7.5v16.757c0 4.142-3.357 7.5-7.5 7.5z" fill="#544f56" data-original="#544f56" style=""/><path d="m226.837 170.113h-66.398c-4.143 0-7.5-3.358-7.5-7.5s3.357-7.5 7.5-7.5h66.398c4.143 0 7.5 3.358 7.5 7.5s-3.358 7.5-7.5 7.5z" fill="#544f56" data-original="#544f56" style=""/><path d="m336.562 170.113h-66.398c-4.143 0-7.5-3.358-7.5-7.5s3.357-7.5 7.5-7.5h66.398c4.143 0 7.5 3.358 7.5 7.5s-3.358 7.5-7.5 7.5z" fill="#544f56" data-original="#544f56" style=""/><path d="m296.809 220.705c-4.143 0-7.5-3.358-7.5-7.5v-16.757c0-4.142 3.357-7.5 7.5-7.5s7.5 3.358 7.5 7.5v16.757c0 4.142-3.358 7.5-7.5 7.5z" fill="#544f56" data-original="#544f56" style=""/></g><path d="m316.143 311.667c-2.464 0-4.878-1.213-6.312-3.439l-16.029-24.883c-2.243-3.482-1.239-8.124 2.243-10.367 3.479-2.242 8.123-1.24 10.366 2.244l16.029 24.883c2.243 3.482 1.239 8.124-2.243 10.367-1.256.809-2.663 1.195-4.054 1.195z" fill="#ebae9d" data-original="#ebae9d" style=""/><path d="m180.857 311.667c-1.392 0-2.798-.387-4.055-1.196-3.482-2.243-4.486-6.885-2.243-10.367l16.029-24.883c2.243-3.482 6.884-4.485 10.366-2.244 3.482 2.243 4.486 6.885 2.243 10.367l-16.029 24.883c-1.433 2.227-3.847 3.44-6.311 3.44z" fill="#ebae9d" data-original="#ebae9d" style=""/><path d="m248.516 314.117c-25.582 0-51.166-5.417-63.989-16.241-3.165-2.671-3.565-7.403-.894-10.569 2.672-3.165 7.402-3.565 10.569-.894 9.135 7.711 30.412 12.702 54.206 12.715h.093c23.76 0 45.038-4.965 54.229-12.658 3.175-2.657 7.906-2.239 10.564.938 2.659 3.176 2.239 7.906-.938 10.565-12.861 10.766-38.35 16.144-63.84 16.144z" fill="#c38778" data-original="#c38778" style="" class=""/><path d="m172.016 497v-83.95c0-4.142 3.357-7.5 7.5-7.5s7.5 3.358 7.5 7.5v83.95z" fill="#fff0af" data-original="#fff0af" style="" class=""/><path d="m309.984 497v-83.95c0-4.142 3.357-7.5 7.5-7.5s7.5 3.358 7.5 7.5v83.95z" fill="#fff0af" data-original="#fff0af" style="" class=""/><path d="m90.631 147.307-10 77.259c0 5.523 14.477 20 20 20s10-14.477 10-20v-60.999c0-10.87-10.07-18.378-20-16.26z" fill="#a29aa5" data-original="#a29aa5" style="" class=""/><path d="m100.631 234.566c-5.523 0-10-4.477-10-10v-77.259c-1.38.294-2.758.771-4.106 1.454-11.042 5.598-20.894 22.365-20.894 51.986s9.852 46.388 20.894 51.986 24.106-2.426 24.106-14.806v-13.362c0 5.523-4.477 10.001-10 10.001z" fill="#766d78" data-original="#766d78" style="" class=""/><path d="m410.475 148.761c-1.348-.683-2.725-1.16-4.106-1.454l-10 77.463c0 5.401 14.378 19.779 19.779 19.779 3.127 0 7.814-11.891 11.207-14.834 2.5-7.757 4.014-17.373 4.014-28.967 0-29.622-9.852-46.389-20.894-51.987z" fill="#a29aa5" data-original="#a29aa5" style="" class=""/><path d="m406.369 224.77v-77.463c-9.931-2.117-20 5.391-20 16.26v74.361c0 12.38 13.063 20.404 24.106 14.806 6.72-3.407 12.995-10.959 16.881-23.019-3.393 2.943-8.08 4.834-11.207 4.834-5.401 0-9.78-4.379-9.78-9.779z" fill="#766d78" data-original="#766d78" style="" class=""/></g></g></svg>
