<?xml version="1.0"?>
<svg xmlns="http://www.w3.org/2000/svg" xmlns:xlink="http://www.w3.org/1999/xlink" xmlns:svgjs="http://svgjs.com/svgjs" version="1.1" width="512" height="512" x="0" y="0" viewBox="0 0 512 512" style="enable-background:new 0 0 512 512" xml:space="preserve" class=""><g>
<g xmlns="http://www.w3.org/2000/svg">
	<g>
		<path d="M318.656,267.435c-0.021,0-0.021-0.021-0.021-0.021c-24.832-10.005-39.232-15.125-51.947-19.413V64.384    c59.691,3.947,106.645,40.512,106.645,84.949c0,5.888,4.779,10.667,10.667,10.667c5.888,0,10.667-4.779,10.667-10.667    c0-56.043-56.512-102.037-128-106.261V10.667C266.667,4.779,261.888,0,256,0c-5.888,0-10.667,4.779-10.667,10.667v32.405    c-71.488,4.224-128,50.219-128,106.261c0,40.597,29.205,77.12,76.203,95.317h0.043c24.725,9.621,39.019,14.507,51.776,18.752    v184.213c-59.733-3.947-106.688-40.512-106.688-84.949c0-5.888-4.779-10.667-10.667-10.667s-10.667,4.779-10.667,10.667    c0,56.043,56.512,102.037,128,106.261v32.405c0,5.888,4.779,10.667,10.667,10.667c5.888,0,10.667-4.779,10.667-10.667v-32.405    c71.488-4.224,128-50.219,128-106.261C394.667,322.112,365.547,285.653,318.656,267.435z M245.333,240.896    c-10.987-3.712-24.021-8.341-44.075-16.128l-0.021-0.021c-38.592-14.933-62.571-43.84-62.571-75.413    c0-44.437,46.955-81.003,106.667-84.949V240.896z M266.667,447.616V270.549c10.944,3.797,24,8.597,43.968,16.661    c0.021,0,0.043,0,0.085,0.021c0.021,0,0.043,0.021,0.064,0.043c38.571,14.912,62.549,43.819,62.549,75.392    C373.333,407.104,326.379,443.669,266.667,447.616z" fill="#000000" data-original="#000000" style=""/>
	</g>
</g>
<g xmlns="http://www.w3.org/2000/svg">
</g>
<g xmlns="http://www.w3.org/2000/svg">
</g>
<g xmlns="http://www.w3.org/2000/svg">
</g>
<g xmlns="http://www.w3.org/2000/svg">
</g>
<g xmlns="http://www.w3.org/2000/svg">
</g>
<g xmlns="http://www.w3.org/2000/svg">
</g>
<g xmlns="http://www.w3.org/2000/svg">
</g>
<g xmlns="http://www.w3.org/2000/svg">
</g>
<g xmlns="http://www.w3.org/2000/svg">
</g>
<g xmlns="http://www.w3.org/2000/svg">
</g>
<g xmlns="http://www.w3.org/2000/svg">
</g>
<g xmlns="http://www.w3.org/2000/svg">
</g>
<g xmlns="http://www.w3.org/2000/svg">
</g>
<g xmlns="http://www.w3.org/2000/svg">
</g>
<g xmlns="http://www.w3.org/2000/svg">
</g>
</g></svg>
