<?xml version="1.0"?>
<svg xmlns="http://www.w3.org/2000/svg" xmlns:xlink="http://www.w3.org/1999/xlink" xmlns:svgjs="http://svgjs.com/svgjs" version="1.1" width="512" height="512" x="0" y="0" viewBox="0 0 512 512" style="enable-background:new 0 0 512 512" xml:space="preserve" class=""><g><path xmlns="http://www.w3.org/2000/svg" d="m360 440h-128a16 16 0 0 1 -16-16v-16h144z" fill="#c5dafa" data-original="#c5dafa" style=""/><path xmlns="http://www.w3.org/2000/svg" d="m376 351.2v32.8l-62.51 20.84a62.08122 62.08122 0 0 1 -19.49 3.16c-1.03 0-2.06006-.03-3.08008-.08a61.55628 61.55628 0 0 1 -35.94992-13.85l-48.74-39.88-4.63-3.79-14.49-11.86v.01a30.05421 30.05421 0 0 1 -11.11 13.45v96h-136a111.176 111.176 0 0 0 .87-80.34l-8.31995-22.18a52.70288 52.70288 0 0 1 44.14995-81.48h98.73a39.99389 39.99389 0 0 1 28.29 11.72l84.28 84.28z" fill="#ffceb6" data-original="#ffceb6" style="" class=""/><path xmlns="http://www.w3.org/2000/svg" d="m240 312-38.4 38.4-14.49-11.86v.01a30.05421 30.05421 0 0 1 -11.11 13.45v96h-136a111.176 111.176 0 0 0 .87-80.34l-8.31995-22.18a52.70288 52.70288 0 0 1 44.14995-81.48h98.73a39.99389 39.99389 0 0 1 28.29 11.72z" fill="#0fc773" data-original="#ffc431" style="" class=""/><path xmlns="http://www.w3.org/2000/svg" d="m88 264a32 32 0 0 1 -32-32 24 24 0 0 0 24-24v-.00008a55.99994 55.99994 0 0 1 55.99994-55.99992h.00012a55.99994 55.99994 0 0 1 55.99994 55.99994v24.00006a32 32 0 0 1 -32 32z" fill="#c47220" data-original="#c47220" style=""/><path xmlns="http://www.w3.org/2000/svg" d="m152 232v40a23.59413 23.59413 0 0 1 -1.38 8 23.99566 23.99566 0 0 1 -46.62-8v-40z" fill="#ffceb6" data-original="#ffceb6" style="" class=""/><rect xmlns="http://www.w3.org/2000/svg" fill="#ffb401" height="40.01" rx="8" transform="matrix(.832 -.555 .555 .832 -168.749 115.944)" width="16" x="99.097" y="316.64" data-original="#ffb401" style="" class=""/><rect xmlns="http://www.w3.org/2000/svg" fill="#ffb401" height="26.371" rx="8" transform="matrix(.763 -.646 .646 .763 -230.363 128.401)" width="16" x="52.086" y="365.461" data-original="#ffb401" style="" class=""/><path xmlns="http://www.w3.org/2000/svg" d="m186.67537 338.36251a8.80708 8.80708 0 0 1 -5.34792-9.08379 22.33525 22.33525 0 0 0 -3.02763-13.89687l-5.0437-8.40592a7.99993 7.99993 0 0 1 2.74368-10.97579 7.99994 7.99994 0 0 1 10.9761 2.74392l5.04364 8.40634a38.4026 38.4026 0 0 1 5.02072 25.329 7.54025 7.54025 0 0 1 -10.36489 5.88311z" fill="#ffb401" data-original="#ffb401" style="" class=""/><path xmlns="http://www.w3.org/2000/svg" d="m488 312-44.10674 117.618a16 16 0 0 1 -14.98126 10.382h-92.912l48-128z" fill="#e0edff" data-original="#e0edff" style="" class=""/><path xmlns="http://www.w3.org/2000/svg" d="m289.4 392.34-10.81992-18.04a54.47069 54.47069 0 0 0 -46.46008-26.3 53.78591 53.78591 0 0 0 -20.12 3.88l-5.77 2.31 48.74 39.88a61.55628 61.55628 0 0 0 35.95 13.85 18.08253 18.08253 0 0 0 1.08-6.18 18.3078 18.3078 0 0 0 -2.6-9.4z" fill="#ffbfa1" data-original="#ffbfa1" style=""/><rect xmlns="http://www.w3.org/2000/svg" fill="#ffdc54" height="216" rx="16" width="240" x="248" y="64" data-original="#548aff" style="" class=""/><circle xmlns="http://www.w3.org/2000/svg" cx="272" cy="88" fill="#fa8669" r="8" data-original="#fa8669" style=""/><circle xmlns="http://www.w3.org/2000/svg" cx="296" cy="88" fill="#0fc773" r="8" data-original="#ffc431" style="" class=""/><circle xmlns="http://www.w3.org/2000/svg" cx="320" cy="88" fill="#0fc773" r="8" data-original="#02c26a" style="" class=""/><path xmlns="http://www.w3.org/2000/svg" d="m280 120h72v64h-72z" fill="#a6cfff" data-original="#a6cfff" style="" class=""/><path xmlns="http://www.w3.org/2000/svg" d="m352 152-24-8-16 16-32-16v40h72z" fill="#7dafff" data-original="#7dafff" style=""/><g xmlns="http://www.w3.org/2000/svg" fill="#4367e0"><path d="m376 112h16v16h-16z" fill="#4367e0" data-original="#4367e0" style="" class=""/><path d="m408 112h56v16h-56z" fill="#4367e0" data-original="#4367e0" style="" class=""/><path d="m376 144h48v16h-48z" fill="#4367e0" data-original="#4367e0" style="" class=""/><path d="m440 144h24v16h-24z" fill="#4367e0" data-original="#4367e0" style="" class=""/><path d="m376 176h32v16h-32z" fill="#4367e0" data-original="#4367e0" style="" class=""/><path d="m424 176h40v16h-40z" fill="#4367e0" data-original="#4367e0" style="" class=""/><path d="m272 208h16v16h-16z" fill="#4367e0" data-original="#4367e0" style="" class=""/><path d="m304 208h80v16h-80z" fill="#4367e0" data-original="#4367e0" style="" class=""/><path d="m400 208h64v16h-64z" fill="#4367e0" data-original="#4367e0" style="" class=""/><path d="m272 240h80v16h-80z" fill="#4367e0" data-original="#4367e0" style="" class=""/><path d="m368 240h16v16h-16z" fill="#4367e0" data-original="#4367e0" style="" class=""/></g><path xmlns="http://www.w3.org/2000/svg" d="m68.60274 388.71233 49.59081-35.422 25.80645 38.70967 72.45906-28.98362a42.17334 42.17334 0 0 1 15.66278-3.01638 42.17332 42.17332 0 0 1 36.16333 20.47533l10.822 18.03672a6.26479 6.26479 0 0 1 .89283 3.22319 6.26476 6.26476 0 0 1 -6.26476 6.26476h-.25633a6.26478 6.26478 0 0 1 -2.80169-.66139l-30.67722-15.33861-53.59636 35.73091a73.05223 73.05223 0 0 1 -40.52206 12.26909h-.00006a73.05221 73.05221 0 0 1 -55.767-25.86469l-21.51176-25.423z" fill="#ffceb6" data-original="#ffceb6" style="" class=""/><path xmlns="http://www.w3.org/2000/svg" d="m152 232v40a23.59413 23.59413 0 0 1 -1.38 8h-6.62a32.004 32.004 0 0 1 -32-32v-16z" fill="#ffbfa1" data-original="#ffbfa1" style=""/><path xmlns="http://www.w3.org/2000/svg" d="m136 264a32 32 0 0 0 32-32v-16l-24-24a35.09935 35.09935 0 0 1 -33.29817 24h-6.70183v16a32 32 0 0 0 32 32z" fill="#ffceb6" data-original="#ffceb6" style="" class=""/></g></svg>
