<?xml version="1.0"?>
<svg xmlns="http://www.w3.org/2000/svg" xmlns:xlink="http://www.w3.org/1999/xlink" xmlns:svgjs="http://svgjs.com/svgjs" version="1.1" width="512" height="512" x="0" y="0" viewBox="0 0 512 512" style="enable-background:new 0 0 512 512" xml:space="preserve" class=""><g><rect xmlns="http://www.w3.org/2000/svg" fill="#0caa41" height="360" rx="16" width="272" x="216" y="24" data-original="#548aff" style="" class=""/><path xmlns="http://www.w3.org/2000/svg" d="m264 168h184v120h-184z" fill="#a6cfff" data-original="#a6cfff" style=""/><path xmlns="http://www.w3.org/2000/svg" d="m224 472v16h-64v-24l-8-32h43.83l4.17 24z" fill="#ffceb6" data-original="#ffceb6" style="" class=""/><path xmlns="http://www.w3.org/2000/svg" d="m120 472v16h-64v-24l8-32 40-1.33-8 25.33z" fill="#ffceb6" data-original="#ffceb6" style="" class=""/><path xmlns="http://www.w3.org/2000/svg" d="m48 432 33.94392-122.1981a86.01835 86.01835 0 0 1 22.05608-37.8019h64l27.82608 160h-59.82608l-7.79747-77.97468-24.20253 76.64135z" fill="#0caa41" data-original="#548aff" style="" class=""/><path xmlns="http://www.w3.org/2000/svg" d="m288 200v16a15.99564 15.99564 0 0 1 -16 16h-8l-12.8 17.07007a37.34943 37.34943 0 0 1 -53.52 6.49l-7.28-5.96-14.4-11.79001a24.60837 24.60837 0 0 1 -7.21 17.3999l-.79.79004v16h-64l-8-40-32 32 8 24 19.17993 6.39014a7.05143 7.05143 0 0 1 2.76 11.66992l-5.93993 5.93994 8 16-11.40991 7.6001a15.997 15.997 0 0 1 -21.67017-3.71l-30.35986-40.47018a42.81538 42.81538 0 0 1 3.98-55.96l11.45994-11.45992 22.62988-22.62988a31.99565 31.99565 0 0 1 22.62012-9.37012h77.5a31.99565 31.99565 0 0 1 22.62012 9.37012l30.62988 30.62988 32-32z" fill="#ffceb6" data-original="#ffceb6" style="" class=""/><path xmlns="http://www.w3.org/2000/svg" d="m216 224-25.6001 25.6001-14.3999-11.79004a24.60837 24.60837 0 0 1 -7.21 17.3999l-.79.79004v16h-64l-8-40-24 24-24-32 22.62988-22.62988a31.99565 31.99565 0 0 1 22.62012-9.37012h77.5a31.99565 31.99565 0 0 1 22.62012 9.37012z" fill="#ffb401" data-original="#ffb401" style="" class=""/><path xmlns="http://www.w3.org/2000/svg" d="m120 184a38.62739 38.62739 0 0 1 -27.3137-11.3137l-4.6863-4.6863a35.30394 35.30394 0 0 0 9.86-19.15976l.87928-5.27567a37.7747 37.7747 0 0 1 37.26072-31.56457 37.7747 37.7747 0 0 1 37.26073 31.56457l.87928 5.27567a35.30394 35.30394 0 0 0 9.85999 19.15976l-4.6863 4.6863a38.62739 38.62739 0 0 1 -27.3137 11.3137z" fill="#c47220" data-original="#c47220" style="" class=""/><path xmlns="http://www.w3.org/2000/svg" d="m152 160v32a16 16 0 0 1 -32 0v-32z" fill="#ffceb6" data-original="#ffceb6" style="" class=""/><path xmlns="http://www.w3.org/2000/svg" d="m152 160v32h-8a15.99555 15.99555 0 0 1 -16-16v-16z" fill="#ffbfa1" data-original="#ffbfa1" style=""/><path xmlns="http://www.w3.org/2000/svg" d="m117.87105 321.01242h36.46a8.00026 8.00026 0 0 1 8.00026 8.00026 8.00027 8.00027 0 0 1 -8.00027 8.00027h-36.46a8.00026 8.00026 0 0 1 -8.00026-8.00026 8.00027 8.00027 0 0 1 8.00027-8.00027z" fill="#4976f2" transform="matrix(.301 -.954 .954 .301 -218.624 359.718)" data-original="#4976f2" style=""/><path xmlns="http://www.w3.org/2000/svg" d="m120 472v16h-64v-24l40-8z" fill="#d1e4ff" data-original="#d1e4ff" style="" class=""/><path xmlns="http://www.w3.org/2000/svg" d="m224 472v16h-64v-24l40-8z" fill="#d1e4ff" data-original="#d1e4ff" style="" class=""/><path xmlns="http://www.w3.org/2000/svg" d="m256 168h32a0 0 0 0 1 0 0v32a0 0 0 0 1 0 0h-32a8 8 0 0 1 -8-8v-16a8 8 0 0 1 8-8z" fill="#f5714f" data-original="#f5714f" style=""/><path xmlns="http://www.w3.org/2000/svg" d="m328 216-40-16v-32l40-16z" fill="#e0edff" data-original="#e0edff" style=""/><circle xmlns="http://www.w3.org/2000/svg" cx="272" cy="104" fill="#91c0ff" r="24" data-original="#91c0ff" style=""/><g xmlns="http://www.w3.org/2000/svg" fill="#4976f2"><path d="m320 80h16v16h-16z" fill="#4976f2" data-original="#4976f2" style=""/><path d="m352 80h48v16h-48z" fill="#4976f2" data-original="#4976f2" style=""/><path d="m320 112h56v16h-56z" fill="#4976f2" data-original="#4976f2" style=""/><path d="m392 112h48v16h-48z" fill="#4976f2" data-original="#4976f2" style=""/></g><path xmlns="http://www.w3.org/2000/svg" d="m349.578 144h28.844v16h-28.844z" fill="#e0edff" transform="matrix(.832 -.555 .555 .832 -23.181 227.439)" data-original="#e0edff" style=""/><path xmlns="http://www.w3.org/2000/svg" d="m356 201.578h16v28.844h-16z" fill="#e0edff" transform="matrix(.555 -.832 .832 .555 -17.634 399.051)" data-original="#e0edff" style=""/><path xmlns="http://www.w3.org/2000/svg" d="m360 176h32v16h-32z" fill="#e0edff" data-original="#e0edff" style=""/><path xmlns="http://www.w3.org/2000/svg" d="m248 331.31371a11.31369 11.31369 0 0 1 11.3137-11.31371h9.3726a11.31369 11.31369 0 0 1 11.3137 11.3137 11.31372 11.31372 0 0 1 -3.31371 8l-12.68629 12.6863-12.68629-12.68629a11.31372 11.31372 0 0 1 -3.31371-8z" fill="#f5714f" data-original="#f5714f" style=""/><circle xmlns="http://www.w3.org/2000/svg" cx="320" cy="336" fill="#91c0ff" r="16" data-original="#91c0ff" style=""/><path xmlns="http://www.w3.org/2000/svg" d="m416 336h16v16h-16z" fill="#4976f2" data-original="#4976f2" style=""/><path xmlns="http://www.w3.org/2000/svg" d="m448 336h16v16h-16z" fill="#4976f2" data-original="#4976f2" style=""/><path xmlns="http://www.w3.org/2000/svg" d="m120 157 8-8 16 8h8v11a16 16 0 0 1 -16 16 16 16 0 0 1 -16-16z" fill="#ffceb6" data-original="#ffceb6" style="" class=""/><circle xmlns="http://www.w3.org/2000/svg" cx="240" cy="48" fill="#f5714f" r="8" data-original="#f5714f" style=""/><circle xmlns="http://www.w3.org/2000/svg" cx="264" cy="48" fill="#ffc431" r="8" data-original="#ffc431" style=""/><circle xmlns="http://www.w3.org/2000/svg" cx="288" cy="48" fill="#3cde8d" r="8" data-original="#3cde8d" style=""/></g></svg>
