<?xml version="1.0"?>
<svg xmlns="http://www.w3.org/2000/svg" xmlns:xlink="http://www.w3.org/1999/xlink" xmlns:svgjs="http://svgjs.com/svgjs" version="1.1" width="512" height="512" x="0" y="0" viewBox="0 0 512 512.001" style="enable-background:new 0 0 512 512" xml:space="preserve" class=""><g><path xmlns="http://www.w3.org/2000/svg" d="m115.429688 268.632812v46.277344h4.242187c2.292969 0 4.15625 1.859375 4.15625 4.148438v8.746094l44.882813 58.34375 53.277343-69.257813v-48.257813h-2v28.867188c0 .628906-.128906 2.085938-1.324219 2.085938-.4375 0-.957031-.183594-1.507812-.527344l-43.554688-27.417969c-1.316406-.832031-3.054687-1.289063-4.894531-1.289063-1.839843 0-3.578125.457032-4.894531 1.289063l-43.554688 27.417969c-.546874.347656-1.066406.527344-1.503906.527344-1.195312 0-1.324218-1.457032-1.324218-2.085938v-28.867188zm0 0" fill="#ffffff" data-original="#ffffff" style="" class=""/><path xmlns="http://www.w3.org/2000/svg" d="m151.152344 363.324219 17.558594 22.824219 17.582031-22.859376-8.496094-58.84375 18.730469-18.78125-23.457032-14.765624c-2.398437-1.511719-6.324218-1.511719-8.722656 0l-23.457031 14.765624 18.773437 18.824219zm0 0" fill="#ef5050" data-original="#ef5050" style="" class=""/><path xmlns="http://www.w3.org/2000/svg" d="m259.304688 463.066406v-129.226562h-2.203126c-2.289062 0-4.152343-1.859375-4.152343-4.148438v-40.34375c0-2.289062 1.863281-4.152344 4.152343-4.152344h13.789063v-12.667968h-9.476563c-2.191406 0-3.972656-1.707032-4.128906-3.859375-.429687-.023438-.859375-.035157-1.296875-.035157h-35v47.917969l-52.277343 67.957031-44.882813-58.34375v156.3125c0 2.289063-1.863281 4.152344-4.15625 4.152344h-62.445313v19.304688c0 3.351562 2.707032 6.066406 6.050782 6.066406h210.863281c3.34375 0 6.054687-2.71875 6.054687-6.066406v-20.234375c-11.679687-.953125-20.890624-10.734375-20.890624-22.632813zm0 0" fill="#0caa41" data-original="#0291c9" style="" class=""/><path xmlns="http://www.w3.org/2000/svg" d="m81.210938 294.855469c3.078124 0 5.582031 2.511719 5.582031 5.597656v14.457031h29.640625v-46.277344h-35c-13.347656 0-24.207032 10.886719-24.207032 24.273438v1.949219zm0 0" fill="#0caa41" data-original="#0291c9" style="" class=""/><path xmlns="http://www.w3.org/2000/svg" d="m183.207031 259.359375h-28.992187c-13.960938 0-26.972656-4.289063-37.78125-11.625v49.765625c0 2.832031 1.960937 3.914062 4.359375 2.40625l43.554687-27.421875c2.398438-1.507813 6.324219-1.507813 8.726563 0l43.554687 27.421875c2.398438 1.507812 4.359375.425781 4.359375-2.40625v-49.765625c-10.8125 7.335937-23.820312 11.625-37.78125 11.625zm0 0" fill="#e6e9ed" data-original="#e6e9ed" style="" class=""/><path xmlns="http://www.w3.org/2000/svg" d="m206.917969 82.898438h39.664062c2.292969 0 4.15625 1.863281 4.15625 4.152343v46.109375h13.335938c2.183593 0 4.273437.394532 6.226562 1.085938v-75.722656c0-19.832032-16.242187-36.054688-36.089843-36.054688h-28.484376c.769532 2.683594 1.191407 5.511719 1.191407 8.4375zm0 0" fill="#fcdb67" data-original="#fcdb67" style="" class=""/><path xmlns="http://www.w3.org/2000/svg" d="m73.34375 133.160156h13.335938v-46.109375c0-2.289062 1.867187-4.152343 4.15625-4.152343h117.238281v-51.992188c.003906-17-13.917969-30.90625-30.933594-30.90625h-79.085937c-17.011719 0-30.933594 13.90625-30.933594 30.90625v103.339844c1.953125-.6875 4.039062-1.085938 6.222656-1.085938zm0 0" fill="#ffc502" data-original="#ffc502" style="" class=""/><path xmlns="http://www.w3.org/2000/svg" d="m86.679688 191.632812v-59.472656h-13.335938c-10.871094 0-19.765625 8.921875-19.765625 19.824219v23.789063c0 10.90625 8.894531 19.824218 19.765625 19.824218h13.460938c-.074219-1.3125-.125-2.632812-.125-3.964844zm0 0" fill="#ffb98a" data-original="#ffb98a" style=""/><path xmlns="http://www.w3.org/2000/svg" d="m264.074219 132.160156h-13.335938v59.472656c0 1.332032-.050781 2.652344-.125 3.96875h13.460938c10.871093 0 19.769531-8.921874 19.769531-19.828124v-23.785157c0-10.90625-8.898438-19.828125-19.769531-19.828125zm0 0" fill="#ffb98a" data-original="#ffb98a" style=""/><path xmlns="http://www.w3.org/2000/svg" d="m154.214844 260.359375c-37.789063 0-68.53125-30.832031-68.53125-68.726563v-104.582031c0-2.84375 2.308594-5.152343 5.15625-5.152343h155.742187c2.847657 0 5.15625 2.308593 5.15625 5.152343v104.582031c0 37.894532-30.742187 68.726563-68.53125 68.726563zm0 0" fill="#ffd5b3" data-original="#ffd5b3" style="" class=""/><path xmlns="http://www.w3.org/2000/svg" d="m127.855469 157.390625c-4.144531 0-7.5-3.355469-7.5-7.5v-15.859375c0-4.140625 3.355469-7.5 7.5-7.5 4.140625 0 7.5 3.359375 7.5 7.5v15.859375c0 4.144531-3.359375 7.5-7.5 7.5zm0 0" fill="#775436" data-original="#775436" style="" class=""/><path xmlns="http://www.w3.org/2000/svg" d="m209.566406 157.390625c-4.144531 0-7.5-3.355469-7.5-7.5v-15.859375c0-4.140625 3.355469-7.5 7.5-7.5 4.140625 0 7.5 3.359375 7.5 7.5v15.859375c0 4.144531-3.359375 7.5-7.5 7.5zm0 0" fill="#775436" data-original="#775436" style="" class=""/><path xmlns="http://www.w3.org/2000/svg" d="m180.570312 176.667969h-10.660156c-6.976562 0-12.652344-5.675781-12.652344-12.652344v-23.921875c0-4.144531 3.355469-7.5 7.5-7.5 4.140626 0 7.5 3.355469 7.5 7.5v21.574219h8.3125c4.140626 0 7.5 3.355469 7.5 7.5 0 4.140625-3.359374 7.5-7.5 7.5zm0 0" fill="#c6a07d" data-original="#c6a07d" style=""/><path xmlns="http://www.w3.org/2000/svg" d="m168.710938 233.265625c-18.238282 0-33.078126-14.878906-33.078126-33.167969 0-3.214844 2.601563-5.820312 5.804688-5.820312h54.546875c3.203125 0 5.800781 2.605468 5.800781 5.820312 0 18.289063-14.839844 33.167969-33.074218 33.167969zm0 0" fill="#fb8276" data-original="#fb8276" style=""/><path xmlns="http://www.w3.org/2000/svg" d="m144.523438 122.277344c-1.921876 0-3.839844-.730469-5.300782-2.191406-6.570312-6.566407-17.261718-6.566407-23.832031 0-2.929687 2.925781-7.679687 2.925781-10.605469-.007813-2.925781-2.929687-2.925781-7.679687.003906-10.605469 12.417969-12.402344 32.617188-12.402344 45.035157 0 2.929687 2.929688 2.933593 7.675782.003906 10.605469-1.464844 1.46875-3.382813 2.199219-5.304687 2.199219zm0 0" fill="#ffc502" data-original="#ffc502" style="" class=""/><path xmlns="http://www.w3.org/2000/svg" d="m227.328125 122.277344c-1.921875 0-3.835937-.730469-5.300781-2.191406-6.570313-6.566407-17.261719-6.566407-23.832032 0-2.929687 2.925781-7.679687 2.925781-10.605468-.007813-2.929688-2.929687-2.925782-7.679687.003906-10.605469 12.417969-12.402344 32.617188-12.402344 45.035156 0 2.929688 2.929688 2.929688 7.675782.003906 10.605469-1.464843 1.46875-3.386718 2.199219-5.304687 2.199219zm0 0" fill="#ffc502" data-original="#ffc502" style="" class=""/><path xmlns="http://www.w3.org/2000/svg" d="m119.671875 313.910156h-32.878906v10.105469c0 3.085937-2.503907 5.597656-5.582031 5.597656h-37.59375c-3.074219 0-5.578126-2.511719-5.578126-5.597656v-10.105469h-32.882812c-2.835938 0-5.15625 2.316406-5.15625 5.148438v163.417968c0 2.832032 2.320312 5.148438 5.15625 5.148438h114.515625c2.835937 0 5.15625-2.316406 5.15625-5.148438v-163.417968c0-2.832032-2.320313-5.148438-5.15625-5.148438zm0 0" fill="#d5e962" data-original="#d5e962" style="" class=""/><path xmlns="http://www.w3.org/2000/svg" d="m87.792969 324.015625c0 3.644531-2.945313 6.597656-6.582031 6.597656h-37.59375c-3.632813 0-6.578126-2.953125-6.578126-6.597656v-23.5625c0-3.644531 2.945313-6.597656 6.578126-6.597656h37.59375c3.636718 0 6.582031 2.953125 6.582031 6.597656zm0 0" fill="#ffd5b3" data-original="#ffd5b3" style="" class=""/><path xmlns="http://www.w3.org/2000/svg" d="m52.351562 377.453125c0-6.199219-5.03125-11.222656-11.234374-11.222656-6.207032 0-11.238282 5.023437-11.238282 11.222656 0 6.203125 5.03125 11.226563 11.238282 11.226563 6.203124 0 11.234374-5.023438 11.234374-11.226563zm0 0" fill="#ffffff" data-original="#ffffff" style="" class=""/><path xmlns="http://www.w3.org/2000/svg" d="m41.117188 396.179688c-10.332032 0-18.738282-8.398438-18.738282-18.726563 0-10.324219 8.40625-18.722656 18.738282-18.722656 10.332031 0 18.734374 8.398437 18.734374 18.722656 0 10.328125-8.402343 18.726563-18.734374 18.726563zm0-22.449219c-2.0625 0-3.738282 1.667969-3.738282 3.722656 0 2.058594 1.675782 3.726563 3.738282 3.726563 2.058593 0 3.734374-1.667969 3.734374-3.726563 0-2.050781-1.675781-3.722656-3.734374-3.722656zm0 0" fill="#3dc36a" data-original="#368c0e" style="" class=""/><path xmlns="http://www.w3.org/2000/svg" d="m94.949219 428.148438c0-6.203126-5.027344-11.226563-11.234375-11.226563-6.207032 0-11.238282 5.023437-11.238282 11.226563 0 6.199218 5.03125 11.222656 11.238282 11.222656 6.207031 0 11.234375-5.023438 11.234375-11.222656zm0 0" fill="#ffffff" data-original="#ffffff" style="" class=""/><path xmlns="http://www.w3.org/2000/svg" d="m83.714844 446.871094c-10.332032 0-18.738282-8.398438-18.738282-18.726563 0-10.324219 8.40625-18.722656 18.738282-18.722656 10.332031 0 18.734375 8.398437 18.734375 18.722656 0 10.328125-8.402344 18.726563-18.734375 18.726563zm0-22.449219c-2.0625 0-3.738282 1.667969-3.738282 3.722656 0 2.054688 1.679688 3.726563 3.738282 3.726563s3.734375-1.671875 3.734375-3.726563c0-2.050781-1.675781-3.722656-3.734375-3.722656zm0 0" fill="#3dc36a" data-original="#368c0e" style="" class=""/><path xmlns="http://www.w3.org/2000/svg" d="m41.628906 446.875c-1.273437 0-2.5625-.324219-3.746094-1.007812-3.585937-2.074219-4.8125-6.660157-2.742187-10.246094l42.269531-73.144532c2.074219-3.585937 6.660156-4.8125 10.246094-2.742187 3.585938 2.074219 4.8125 6.660156 2.742188 10.246094l-42.269532 73.144531c-1.386718 2.402344-3.910156 3.75-6.5 3.75zm0 0" fill="#3dc36a" data-original="#368c0e" style="" class=""/><path xmlns="http://www.w3.org/2000/svg" d="m299.605469 343.410156h-1.546875c-.816406 0-1.667969-.097656-2.523438-.292968l-1.222656-.28125v2.5c0 2.285156-1.863281 4.148437-4.15625 4.148437h-15.109375c-2.292969 0-4.15625-1.859375-4.15625-4.148437v-11.496094h-12.585937v129.230468c0 13.09375 10.632812 23.707032 23.75 23.707032 13.117187 0 23.75-10.613282 23.75-23.707032v-121.519531c-1.78125 1.171875-3.910157 1.859375-6.199219 1.859375zm0 0" fill="#0481bf" data-original="#0481bf" style="" class=""/><path xmlns="http://www.w3.org/2000/svg" d="m270.917969 284.195312h-13.816407c-2.835937 0-5.152343 2.320313-5.152343 5.152344v40.34375c0 2.832032 2.316406 5.148438 5.152343 5.148438h13.816407zm0 0" fill="#ffd5b3" data-original="#ffd5b3" style="" class=""/><path xmlns="http://www.w3.org/2000/svg" d="m286.75 332.109375v-1.527344c0-3.824219 1.917969-7.363281 5.136719-9.464843l1.277343-.835938-1.277343-.839844c-3.21875-2.101562-5.136719-5.640625-5.136719-9.464844v-1.523437c0-3.824219 1.917969-7.363281 5.136719-9.464844l1.277343-.839843-1.277343-.835938c-3.21875-2.101562-5.136719-5.640625-5.136719-9.464844v-1.523437c0-5.285157 3.652344-9.722657 8.5625-10.953125v-1.667969c0-.410156-.070312-.796875-.167969-1.175781h-25.253906v72.808594c0 2.832031 2.320313 5.148437 5.15625 5.148437h15.113281c2.835938 0 5.152344-2.316406 5.152344-5.148437v-2.277344c-4.910156-1.230469-8.5625-5.664063-8.5625-10.949219zm0 0" fill="#9ea7af" data-original="#9ea7af" style="" class=""/><path xmlns="http://www.w3.org/2000/svg" d="m436.820312 212.855469h-24.902343v60.671875h24.902343c2.835938 0 5.15625-2.316406 5.15625-5.152344v-50.367188c0-2.832031-2.320312-5.152343-5.15625-5.152343zm0 0" fill="#9ea7af" data-original="#9ea7af" style="" class=""/><path xmlns="http://www.w3.org/2000/svg" d="m408.714844 158.742188-98.441406 65.410156v38.078125l98.441406 65.414062c2.363281 1.566407 4.292968.535157 4.292968-2.300781v-164.300781c0-2.832031-1.929687-3.867188-4.292968-2.300781zm0 0" fill="#ef5050" data-original="#ef5050" style="" class=""/><path xmlns="http://www.w3.org/2000/svg" d="m311.613281 268.375c0 2.835938-2.320312 5.152344-5.15625 5.152344h-45.042969c-2.835937 0-5.15625-2.316406-5.15625-5.152344v-50.367188c0-2.832031 2.320313-5.152343 5.15625-5.152343h45.042969c2.835938 0 5.15625 2.320312 5.15625 5.152343zm0 0" fill="#c0272d" data-original="#c0272d" style=""/><path xmlns="http://www.w3.org/2000/svg" d="m481.191406 279.078125c-1.921875 0-3.84375-.730469-5.308594-2.199219-2.925781-2.929687-2.921874-7.679687.007813-10.605468 6.734375-6.730469 10.445313-15.695313 10.445313-25.242188 0-9.542969-3.710938-18.507812-10.445313-25.234375-2.929687-2.929687-2.933594-7.679687-.003906-10.609375 2.925781-2.929688 7.675781-2.929688 10.605469-.003906 9.570312 9.5625 14.84375 22.292968 14.839843 35.851562 0 13.554688-5.269531 26.285156-14.839843 35.851563-1.464844 1.460937-3.382813 2.191406-5.300782 2.191406zm0 0" fill="#2f7847" data-original="#a2f9f9" style="" class=""/><path xmlns="http://www.w3.org/2000/svg" d="m463.113281 264.179688c-1.917969 0-3.839843-.734376-5.304687-2.199219-2.925782-2.929688-2.925782-7.679688.003906-10.605469 2.765625-2.761719 4.289062-6.433594 4.289062-10.339844s-1.523437-7.578125-4.289062-10.339844c-2.929688-2.925781-2.933594-7.675781-.003906-10.605468 2.925781-2.929688 7.675781-2.933594 10.605468-.003906 5.601563 5.59375 8.6875 13.035156 8.6875 20.949218 0 7.914063-3.085937 15.355469-8.6875 20.953125-1.464843 1.460938-3.382812 2.191407-5.300781 2.191407zm0 0" fill="#0caa41" data-original="#75eae7" style="" class=""/><path xmlns="http://www.w3.org/2000/svg" d="m298.058594 344.410156c-6.785156 0-12.308594-5.519531-12.308594-12.300781v-1.527344c0-4.308593 2.222656-8.101562 5.585938-10.300781-3.363282-2.199219-5.585938-5.996094-5.585938-10.304688v-1.523437c0-4.308594 2.222656-8.105469 5.585938-10.304687-3.363282-2.195313-5.585938-5.992188-5.585938-10.300782v-1.523437c0-6.785157 5.523438-12.304688 12.308594-12.304688h1.546875c6.789062 0 12.3125 5.519531 12.3125 12.304688v1.523437c0 4.308594-2.226563 8.101563-5.589844 10.300782 3.363281 2.199218 5.589844 5.996093 5.589844 10.304687v1.523437c0 4.308594-2.226563 8.105469-5.589844 10.304688 3.363281 2.195312 5.589844 5.992188 5.589844 10.300781v1.527344c0 6.78125-5.523438 12.300781-12.3125 12.300781zm0 0" fill="#ffd5b3" data-original="#ffd5b3" style="" class=""/></g></svg>
