<?xml version="1.0"?>
<svg xmlns="http://www.w3.org/2000/svg" xmlns:xlink="http://www.w3.org/1999/xlink" xmlns:svgjs="http://svgjs.com/svgjs" version="1.1" width="512" height="512" x="0" y="0" viewBox="0 0 512 512" style="enable-background:new 0 0 512 512" xml:space="preserve"><g><path xmlns="http://www.w3.org/2000/svg" d="m24 424v-134.589a56 56 0 0 1 19.12374-42.14429l44.87626-39.26671h72v216z" fill="#ffceb6" data-original="#ffceb6" style=""/><rect xmlns="http://www.w3.org/2000/svg" fill="#548aff" height="264" rx="16" width="160" x="88" y="96" data-original="#548aff" style=""/><path xmlns="http://www.w3.org/2000/svg" d="m400 192h-100.456l42-112h50.456v-16h-56a7.99938 7.99938 0 0 0 -7.49072 5.19141l-46.05323 122.80859h-98.45605v16h98.45605l46.05323 122.80859a7.99938 7.99938 0 0 0 7.49072 5.19141h56v-16h-50.456l-42-112h100.456z" fill="#ffb401" data-original="#ffb401" style=""/><path xmlns="http://www.w3.org/2000/svg" d="m208 96a8.00255 8.00255 0 0 1 -2.34 5.65991l-8 8a8.008 8.008 0 0 1 -5.66 2.34009h-48a8.008 8.008 0 0 1 -5.66-2.34009l-8-8a8.00255 8.00255 0 0 1 -2.34-5.65991z" fill="#4976f2" data-original="#4976f2" style=""/><g xmlns="http://www.w3.org/2000/svg" fill="#7dafff"><path d="m112 120h16v16h-16z" fill="#7dafff" data-original="#7dafff" style=""/><path d="m208 120h16v16h-16z" fill="#7dafff" data-original="#7dafff" style=""/><path d="m208 320h16v16h-16z" fill="#7dafff" data-original="#7dafff" style=""/></g><path xmlns="http://www.w3.org/2000/svg" d="m64 296 66.69194-44.46129a21.07 21.07 0 0 1 11.68755-3.53871 17.62048 17.62048 0 0 1 17.62051 17.62048 17.6205 17.6205 0 0 1 -4.084 11.28035l-35.916 43.09917a68.32124 68.32124 0 0 1 -24.58306 52.48585l-23.41694 19.51415h-8z" fill="#ffceb6" data-original="#ffceb6" style=""/><path xmlns="http://www.w3.org/2000/svg" d="m24 424h136v72h-136z" fill="#ffb401" data-original="#ffb401" style=""/><circle xmlns="http://www.w3.org/2000/svg" cx="168" cy="200" fill="#ffb401" r="16" data-original="#ffb401" style=""/><path xmlns="http://www.w3.org/2000/svg" d="m168 224a24 24 0 1 1 24-24 24.02718 24.02718 0 0 1 -24 24zm0-32a8 8 0 1 0 8 8 8.00917 8.00917 0 0 0 -8-8z" fill="#ffe28f" data-original="#ffe28f" style=""/><path xmlns="http://www.w3.org/2000/svg" d="m72.00023 392.00027a7.99986 7.99986 0 0 1 1.02419-11.2673l17.271-14.39214a60.16269 60.16269 0 0 0 21.70458-46.34746 7.98911 7.98911 0 0 1 1.854-5.11446l35.74528-42.89472a10.03451 10.03451 0 0 0 2.32168-5.117 9.63184 9.63184 0 0 0 -9.54157-10.86719 13.02329 13.02329 0 0 0 -7.24951 2.19531l-60.03614 40.02351a7.99982 7.99982 0 0 1 -11.09374-2.21882 7.99984 7.99984 0 0 1 2.21877-11.09378l60.0356-40.02344a28.97433 28.97433 0 0 1 16.12502-4.88278 25.62041 25.62041 0 0 1 19.68213 42.02246l-34.11865 40.94238a76.1045 76.1045 0 0 1 -27.4043 55.667l-17.27157 14.39258a7.99984 7.99984 0 0 1 -11.26677-1.02415z" fill="#ffbfa1" data-original="#ffbfa1" style=""/><path xmlns="http://www.w3.org/2000/svg" d="m480 72a48 48 0 1 1 -48-48 47.84249 47.84249 0 0 1 48 48z" fill="#548aff" data-original="#548aff" style=""/><path xmlns="http://www.w3.org/2000/svg" d="m464 96v11.77a47.97933 47.97933 0 0 1 -64 0v-11.77a15.99552 15.99552 0 0 1 16-16h32a15.99552 15.99552 0 0 1 16 16z" fill="#ef5e3b" data-original="#ef5e3b" style=""/><rect xmlns="http://www.w3.org/2000/svg" fill="#ffceb6" height="40" rx="16" width="32" x="416" y="48" data-original="#ffceb6" style=""/><path xmlns="http://www.w3.org/2000/svg" d="m480 200a48 48 0 1 1 -48-48 47.84249 47.84249 0 0 1 48 48z" fill="#548aff" data-original="#548aff" style=""/><path xmlns="http://www.w3.org/2000/svg" d="m464 224v11.77a47.97933 47.97933 0 0 1 -64 0v-11.77a15.99552 15.99552 0 0 1 16-16h32a15.99552 15.99552 0 0 1 16 16z" fill="#02c26a" data-original="#02c26a" style=""/><rect xmlns="http://www.w3.org/2000/svg" fill="#ffceb6" height="40" rx="16" width="32" x="416" y="176" data-original="#ffceb6" style=""/><path xmlns="http://www.w3.org/2000/svg" d="m480 328a48 48 0 1 1 -48-48 47.84249 47.84249 0 0 1 48 48z" fill="#548aff" data-original="#548aff" style=""/><path xmlns="http://www.w3.org/2000/svg" d="m464 352v11.77a47.97933 47.97933 0 0 1 -64 0v-11.77a15.99552 15.99552 0 0 1 16-16h32a15.99552 15.99552 0 0 1 16 16z" fill="#ffb401" data-original="#ffb401" style=""/><rect xmlns="http://www.w3.org/2000/svg" fill="#ffceb6" height="40" rx="16" width="32" x="416" y="304" data-original="#ffceb6" style=""/></g></svg>
