<?xml version="1.0"?>
<svg xmlns="http://www.w3.org/2000/svg" xmlns:xlink="http://www.w3.org/1999/xlink" xmlns:svgjs="http://svgjs.com/svgjs" version="1.1" width="512" height="512" x="0" y="0" viewBox="0 0 512 512" style="enable-background:new 0 0 512 512" xml:space="preserve"><g><path xmlns="http://www.w3.org/2000/svg" d="m24 424v-136a16 16 0 0 1 16-16h216a16 16 0 0 1 16 16v136z" fill="#548aff" data-original="#548aff" style=""/><path xmlns="http://www.w3.org/2000/svg" d="m208 176v-24l40-40h56v64a48 48 0 0 1 -48 48 48 48 0 0 1 -48-48z" fill="#ffceb6" data-original="#ffceb6" style=""/><circle xmlns="http://www.w3.org/2000/svg" cx="248" cy="152" fill="#c47220" r="8" data-original="#c47220" style=""/><path xmlns="http://www.w3.org/2000/svg" d="m304 112 5.06751-2.53375a19.77708 19.77708 0 0 0 10.93249-17.68915 19.77706 19.77706 0 0 0 -19.77707-19.7771h-52.22293a40 40 0 0 0 -40 40v40l40-40z" fill="#c47220" data-original="#c47220" style=""/><path xmlns="http://www.w3.org/2000/svg" d="m280 192h-20.68652a35.08178 35.08178 0 0 1 -24.97022-10.34326l11.31348-11.31348a19.18705 19.18705 0 0 0 13.65674 5.65674h20.68652z" fill="#ffb089" data-original="#ffb089" style=""/><circle xmlns="http://www.w3.org/2000/svg" cx="280" cy="152" fill="#c47220" r="8" data-original="#c47220" style=""/><path xmlns="http://www.w3.org/2000/svg" d="m291.09009 263.86-36.59009 58.55-38.5 61.59h-144l86.73-153.45a60.15159 60.15159 0 0 1 99.33008-7.98l24.60986 30.76z" fill="#ffc431" data-original="#ffc431" style=""/><path xmlns="http://www.w3.org/2000/svg" d="m344 168h48v48h-48z" fill="#ef5e3b" data-original="#ef5e3b" style=""/><path xmlns="http://www.w3.org/2000/svg" d="m448 232-56-16v-48l56-16z" fill="#e0edff" data-original="#e0edff" style=""/><rect xmlns="http://www.w3.org/2000/svg" fill="#ffb401" height="39.686" rx="8" transform="matrix(.753 -.659 .659 .753 -134.25 216.567)" width="16" x="213.067" y="267.09" data-original="#ffb401" style=""/><g xmlns="http://www.w3.org/2000/svg" fill="#bed3f7"><path d="m472 184h24v16h-24z" fill="#bed3f7" data-original="#bed3f7" style=""/><path d="m461.456 158.544h24v16h-24z" transform="matrix(.707 -.707 .707 .707 20.907 383.563)" fill="#bed3f7" data-original="#bed3f7" style=""/><path d="m465.456 205.456h16v24h-16z" transform="matrix(.707 -.707 .707 .707 -15.092 398.475)" fill="#bed3f7" data-original="#bed3f7" style=""/></g><path xmlns="http://www.w3.org/2000/svg" d="m392 216v40l-16 16-19.02 30.43a71.42657 71.42657 0 0 1 -114.32 9.18l-8.53-9.74 48.53992-48.54 8.42017 10.53 12.90991 16.14 40-40v-24z" fill="#ffceb6" data-original="#ffceb6" style=""/><path xmlns="http://www.w3.org/2000/svg" d="m400 424v16a15.99555 15.99555 0 0 1 -16 16h-224v-32z" fill="#c5dafa" data-original="#c5dafa" style=""/><path xmlns="http://www.w3.org/2000/svg" d="m24 424h168v16a16 16 0 0 1 -16 16h-136a16 16 0 0 1 -16-16z" fill="#e0edff" data-original="#e0edff" style=""/><path xmlns="http://www.w3.org/2000/svg" d="m328 424a8.00285 8.00285 0 0 1 -2.34009 5.66l-8 8a8.00784 8.00784 0 0 1 -5.65991 2.34h-32a8.00784 8.00784 0 0 1 -5.65991-2.34l-8-8a8.00285 8.00285 0 0 1 -2.34009-5.66z" fill="#b6caf0" data-original="#b6caf0" style=""/><path xmlns="http://www.w3.org/2000/svg" d="m48 376h200v16h-200z" fill="#7dafff" data-original="#7dafff" style=""/></g></svg>
