<?xml version="1.0"?>
<svg xmlns="http://www.w3.org/2000/svg" xmlns:xlink="http://www.w3.org/1999/xlink" xmlns:svgjs="http://svgjs.com/svgjs" version="1.1" width="512" height="512" x="0" y="0" viewBox="0 0 512 512" style="enable-background:new 0 0 512 512" xml:space="preserve" class=""><g><path xmlns="http://www.w3.org/2000/svg" d="m224 248h264v144h-264z" fill="#02c26a" data-original="#02c26a" style=""/><path xmlns="http://www.w3.org/2000/svg" d="m440 360a16 16 0 0 1 16-16v-48a16 16 0 0 1 -16-16h-168a16 16 0 0 1 -16 16v48a16 16 0 0 1 16 16z" fill="#67eba0" data-original="#67eba0" style="" class=""/><path xmlns="http://www.w3.org/2000/svg" d="m296 312h120v16h-120z" fill="#3cde8d" data-original="#3cde8d" style=""/><path xmlns="http://www.w3.org/2000/svg" d="m160 448 32 24v16h-72v-32z" fill="#bed3f7" data-original="#bed3f7" style=""/><path xmlns="http://www.w3.org/2000/svg" d="m120 456-8-168-24 160-40 8v-216h112v208z" fill="#548aff" data-original="#548aff" style=""/><path xmlns="http://www.w3.org/2000/svg" d="m292.32812 118.2832-10.09423-30.2832h-36.46778l-10.09423 30.2832-15.17872-5.06054 11.91748-35.752a7.99928 7.99928 0 0 1 7.58936-5.47066h48a7.99928 7.99928 0 0 1 7.58936 5.4707l11.91748 35.752z" fill="#c47220" data-original="#c47220" style="" class=""/><path xmlns="http://www.w3.org/2000/svg" d="m48 240v-51.42857l-6.778-5.80974a49.31721 49.31721 0 0 1 -17.222-37.4444v-.00007a49.31722 49.31722 0 0 1 49.31722-49.31722h69.5569a32 32 0 0 1 26.62561 14.24959l22.50027 33.75041v72h-32v24z" fill="#ffb401" data-original="#ffb401" style=""/><path xmlns="http://www.w3.org/2000/svg" d="m96 168 8-32h16l7.176 32z" fill="#ef5e3b" data-original="#ef5e3b" style=""/><path xmlns="http://www.w3.org/2000/svg" d="m104 136h16l7.176-16-15.176-16-16 16z" fill="#e04f2b" data-original="#e04f2b" style=""/><path xmlns="http://www.w3.org/2000/svg" d="m132.79974 129.6-20.79974-15.6-20.79974 15.6a8.00016 8.00016 0 0 1 -11.2005-1.60031 8.00015 8.00015 0 0 1 1.60024-11.19994l25.6002-19.20014a7.99965 7.99965 0 0 1 9.5996 0l25.6002 19.20014a8.00015 8.00015 0 0 1 1.60026 11.19991 8.00016 8.00016 0 0 1 -11.20052 1.60034z" fill="#ffa100" data-original="#ffa100" style=""/><path xmlns="http://www.w3.org/2000/svg" d="m112 104a24 24 0 0 1 -24-24v-8l16-16h32v24a24 24 0 0 1 -24 24z" fill="#ffceb6" data-original="#ffceb6" style=""/><path xmlns="http://www.w3.org/2000/svg" d="m136 56 6.63344-13.26688a12.94424 12.94424 0 0 0 1.36656-5.78885 12.94426 12.94426 0 0 0 -12.94426-12.94427h-19.05574a24 24 0 0 0 -24 24v24l16-16z" fill="#c47220" data-original="#c47220" style="" class=""/><path xmlns="http://www.w3.org/2000/svg" d="m192 104h144v96h-144z" fill="#c47220" data-original="#c47220" style="" class=""/><path xmlns="http://www.w3.org/2000/svg" d="m336 104-32 40h-80l-32-40z" fill="#db8638" data-original="#db8638" style=""/><path xmlns="http://www.w3.org/2000/svg" d="m248 128h32v40h-32z" fill="#ffc431" data-original="#ffc431" style=""/><path xmlns="http://www.w3.org/2000/svg" d="m176 176h-80a8.0006 8.0006 0 0 1 -5.65729-2.34333l-26.34284-26.34284a8 8 0 0 1 -.00025-11.31345l.00022-.00022a8 8 0 0 1 11.31399-.00016l23.99965 24h76.68652a8 8 0 0 1 8 8 8 8 0 0 1 -8 8z" fill="#ffa100" data-original="#ffa100" style=""/><path xmlns="http://www.w3.org/2000/svg" d="m184 168v48h66.89207a5.10793 5.10793 0 0 0 5.10793-5.10793 5.10793 5.10793 0 0 0 -2.47992-4.38l-37.52008-22.51207 7.31672-14.63344a6.4722 6.4722 0 0 0 .68328-2.89442 6.47213 6.47213 0 0 0 -6.47213-6.47214 12.411 12.411 0 0 0 -3.0101.37056z" fill="#ffceb6" data-original="#ffceb6" style=""/><path xmlns="http://www.w3.org/2000/svg" d="m152 224h-57.20261a48.00094 48.00094 0 0 1 -31.23831-11.55566l-14.69145-12.59248a8 8 0 0 1 -.86773-11.28045l.00029-.00034a8 8 0 0 1 11.28036-.86766l14.69178 12.593a31.99867 31.99867 0 0 0 20.82455 7.70359h57.20312a8 8 0 0 1 8 8 8 8 0 0 1 -8 8z" fill="#ffa100" data-original="#ffa100" style=""/><path xmlns="http://www.w3.org/2000/svg" d="m88 448 40 24v16h-80v-32z" fill="#d1e4ff" data-original="#d1e4ff" style=""/><path xmlns="http://www.w3.org/2000/svg" d="m224 392h264v96h-264z" fill="#00a64f" data-original="#00a64f" style="" class=""/><path xmlns="http://www.w3.org/2000/svg" d="m328 248h56v240h-56z" fill="#ffb401" data-original="#ffb401" style=""/><g xmlns="http://www.w3.org/2000/svg" fill="#009644"><path d="m256 416h72v16h-72z" fill="#009644" data-original="#009644" style=""/><path d="m384 416h104v16h-104z" fill="#009644" data-original="#009644" style=""/><path d="m224 448h104v16h-104z" fill="#009644" data-original="#009644" style=""/><path d="m384 448h104v16h-104z" fill="#009644" data-original="#009644" style=""/></g><path xmlns="http://www.w3.org/2000/svg" d="m328 248h56v144h-56z" fill="#ffc431" data-original="#ffc431" style=""/></g></svg>
