<svg width="136" height="109" fill="none" xmlns="http://www.w3.org/2000/svg"><path d="M40.214 85.978c-5.366.703-10.687 1.476-16.03 2.087-4.023.462-8.056.842-12.102 1.016-1.228.057-2.642-.416-3.303-1.8-.893-1.903-1.808-3.795-2.655-5.721-.405-.912.163-1.857 1.24-1.996 1.867-.242 3.733-.484 5.61-.565 8.034-.323 16.066-.588 24.1-.877.22-.011.44-.08.614-.115.08-.138.173-.22.173-.288-.44-5.456 2.666-8.86 6.897-11.477 5.147-3.196 10.908-4.753 16.854-5.503 4.242-.53 8.508-.98 12.773-1.038 3.988-.057 8.01.266 11.986.762 5.17.645 10.328 1.465 15.428 2.503 3.686.76 7.279 2.007 10.768 2.999.846-.727 1.6-1.754 2.608-2.111.754-.265 1.901.15 2.712.577 1.31.68 1.461 2.41.684 3.668 3.489 2.191 7.129 4.175 10.421 6.61 3.28 2.421 6.051 5.432 6.642 9.723.174 1.303.046 2.791-.406 4.026-.985 2.71-1.97 5.49-3.489 7.913-2.388 3.817-6.074 6.274-10.189 8.097-5.436 2.399-11.139 3.668-17.062 4.152-8.102.669-16.123.208-24.121-1.349-10.247-1.984-19.937-5.352-28.851-10.774-4.451-2.71-8.392-6.067-11.302-10.52zm59.417 14.314c.012.127.023.243.047.369 4.833-.588 9.701-.98 14.489-1.822 4.648-.819 9.122-2.353 13.214-4.833.904-.542 1.159-1.061.753-2.1-1.159-2.987-3.025-5.479-5.332-7.636-5.39-5.063-11.788-8.431-18.743-10.854a84.874 84.874 0 0 0-28.016-4.752c-7.476-.012-14.814.727-21.78 3.633-3.813 1.592-7.29 3.622-9.447 7.394-1.518 2.653-1.437 3.426.788 5.48 5.483 5.075 12.067 8.212 19.103 10.334 4.833 1.454 9.818 2.446 14.79 3.38 3.594.68 7.268 1.084 10.93 1.35 3.05.23 6.132.057 9.204.057zM41.85 80.129c1.576-3.08 3.686-5.456 6.433-7.243 6.78-4.407 14.477-5.583 22.313-6.033 3.408-.196 6.85.023 10.258.265 3.292.23 6.607.554 9.853 1.177 6.526 1.234 12.855 3.16 18.986 5.71 5.854 2.433 11.395 5.42 15.915 9.93 2.052 2.054 3.744 4.465 5.61 6.726 1.275-1.373 1.867-3.3 1.762-5.352-.127-2.7-1.472-4.96-3.222-6.956-3.304-3.76-7.488-6.321-11.951-8.478-.301-.138-.765-.046-1.124.058-1.379.438-2.979-.185-3.825-1.35-.441-.611-1.113-1.223-1.808-1.453-10.027-3.38-20.343-5.214-30.926-5.525-6.364-.185-12.704.138-18.998 1.291-5.46 1.004-10.687 2.527-15.416 5.56-3.895 2.492-6.12 6.956-3.86 11.673zm86.633 16.057c-1.565.727-3.107 1.534-4.706 2.168-6.41 2.561-13.179 3.438-19.983 3.818-4.521.254-9.077.035-13.597-.23-6.028-.358-11.985-1.292-17.85-2.734-8.056-1.972-15.869-4.602-23.067-8.79-1.635-.945-3.188-2.041-4.787-3.056.44.738.939 1.372 1.506 1.96 4.405 4.557 9.656 7.856 15.359 10.555 9.238 4.372 19.08 6.344 29.175 7.002 5.726.369 11.499.253 17.225-.727 5.042-.865 9.899-2.18 14.408-4.602 2.48-1.327 4.752-2.953 6.317-5.364zm-81.99-84c.027 1.553.043 2.905.064 4.436 2.002-.17 3.908-.337 5.921-.51-.304-1.053-.546-2.1-.908-3.1-.395-1.075.13-1.598 1.014-1.878 2.225-.691 4.464-.75 6.483.515.454.277.582 1.26.63 1.931.156 2.08.114 2.104 2.195 2.08 1.551-.017 3.157-.349 4.526.672.384.286.851.775.877 1.2.44 6.992.82 13.98 1.216 20.985.064 1.098.094 2.206.265 3.297.201 1.323-.444 1.845-1.615 2.052-5.217.944-10.397 2.057-15.64 2.828-6.195.902-12.416 1.668-18.65 2.185-6.101.515-12.222.711-18.346.896-2.666.087-3.606-.83-3.907-3.205-.455-3.494-.924-6.997-1.38-10.491-.429-3.322-.906-6.643-1.25-9.965-.132-1.247-.109-2.586.18-3.798.163-.648.975-1.47 1.622-1.61 2.646-.572 5.351-.898 8.024-1.335 2.41-.384 4.809-.813 7.222-1.187 1.133-.171 1.33-.744.99-1.75-.457-1.333-.851-2.696-1.234-4.063-.319-1.144.083-1.8 1.283-1.823 2.976-.056 5.965-.068 8.941.045 2.89.101 5.774.312 8.636.613.956.096 1.87.625 2.841.98zm-19.303.092c.654 2.261 1.162 4.06 1.703 5.848.184.595.258 1.102-.526 1.269-3.197.672-6.395 1.38-9.602 1.97-2.221.415-4.475.634-6.71.956-.65.091-1.122.336-.974 1.182.08.481-.13 1.01-.073 1.498.296 2.82.618 5.645.962 8.463.54 4.37 1.093 8.75 1.658 13.125.076.638.196 1.264 1.134 1.209 7.675-.454 15.375-.614 23.024-1.409 7.005-.728 13.936-2.13 20.899-3.255 2.396-.392 4.79-.832 7.365-1.276-.507-8.055-1.018-16.084-1.513-24.058-.348-.079-.488-.146-.617-.133-4.827.29-9.668.573-14.493.911-.898.068-1.859.25-2.667.627-1.568.753-2.92.124-3.103-1.636-.141-1.449-.212-2.905-.331-4.527-5.237-.252-10.485-.5-16.136-.764zm26.999 3.699a436.43 436.43 0 0 0 2.65-.31c-.07-.904-.118-1.575-.181-2.253-.117-1.323-1.11-.748-1.64-.582-2.126.662.065 2.022-.83 3.145zm62.749 35.476c-1.055.9-1.831 1.557-2.735 2.33.255 1.061.544 2.284.846 3.507.313 1.245-.209 1.822-1.449 1.442a4.607 4.607 0 0 1-1.739-1.004c-1.959-1.8-1.924-1.81-4.08-.254-.359.254-.858.52-1.263.473-1.948-.207-2.11-.565-1.252-2.318.301-.612.602-1.223.962-1.938-1.148-.82-2.249-1.603-3.373-2.41.232-.393.44-.74.568-.981 1.205.253 2.295.565 3.419.657.383.035.881-.415 1.217-.75.278-.276.348-.75.603-1.06.487-.6 1.205-1.696 1.542-1.593 1.02.3 2.457.323 2.573 1.961.069.877.556 1.304 1.576 1.258.696-.024 1.403.357 2.585.68zm-31.516.115c-1.761.012-3.419-1.084-3.442-2.272-.046-1.776 1.414-3.207 3.303-3.253 1.565-.034 2.898 1.327 2.98 3.045.046 1.108-1.52 2.48-2.84 2.48zM1.87 63.266l3.124-4.637c.204-.299.447-.585.632-.903.917-1.586 2.04-2.751 4.23-1.895-.335.469-.682.977-1.033 1.475-1.111 1.582-2.355 3.082-3.283 4.755-.82 1.462-1.846 1.71-3.67 1.205zm20.125-6.765c.276 2.165.58 3.927.682 5.698.028.389-.69 1.16-1.045 1.143-.681-.02-1.866.6-1.891-.99-.027-1.638-.351-3.26-.364-4.89 0-.457.549-1.191.964-1.3.54-.132 1.211.227 1.654.339zM128.61 63.68c-.023 1.165-.938 1.8-2.469 1.719-1.333-.07-2.596-1.165-2.538-2.192.07-1.2 1.252-2.238 2.515-2.215 1.53.024 2.527 1.108 2.492 2.688zm-117.135-.452c.476-1.987.86-3.706 1.308-5.41.42-1.634 1.688-.715 2.658-.864-.342 1.864-.584 3.7-1.032 5.486-.407 1.558-1.656.659-2.934.788z" fill="#4A4A4A"/><path d="M85.235 85.412c-1.287 2.203-2.817.011-4.405.38-.591 1.016-1.287 2.227-2.028 3.426-.44.704-.87 1.408-1.96 1.004-.984-.37-1.808-.646-1.784-2.019.023-1.2-.36-2.399-.545-3.425-2.075-.612-4.069-1.212-6.306-1.87 1.426-2.202 3.71-1.545 5.251-2.48.162-1.66-1.298-3.287-.127-5.04 1.53.37 2.967.842 3.94 2.192.627.853 1.403 1.13 2.365.519 1.45-.934 2.91-.854 4.544.069-.452 1.004-.858 2.11-1.437 3.114-.475.831-.186 1.35.37 1.915.684.68 1.334 1.396 2.122 2.215zm12.82-7.313c1.264.288 2.365.554 3.768.877-.847.784-1.38 1.453-2.064 1.88-.753.473-.684.98-.44 1.638.266.727.568 1.442.765 2.192.081.334.035.841-.162 1.072-.174.208-.72.277-1.02.162-1.23-.45-2.435-.992-3.814-1.58-.301.219-.846.495-1.24.922-.95 1.038-1.855.346-2.724-.034-.186-.081-.255-.727-.174-1.062.15-.565.464-1.084.788-1.81-.753-.416-1.541-.762-2.214-1.258-.336-.242-.707-.807-.626-1.119.081-.311.673-.611 1.09-.703.8-.185 1.669-.127 2.457-.335.44-.115.8-.565 1.148-.923.185-.184.197-.519.36-.738.474-.646 1.042-1.822 1.483-1.788 1.124.104 2.48.439 2.515 2.088-.023.277.104.53.104.52zm-36.408-2.41c1.101.334 2.04.61 3.2.957-.407.576-.65 1.072-1.02 1.418-.986.912-.731 1.858-.325 2.919.185.507.266 1.36-.024 1.65-.301.31-1.124.276-1.68.172-.65-.127-1.252-.484-1.96-.773-.834.646-1.541 1.8-2.978 1.108-.754-.358-1.31-.692-.87-1.592.545-1.119.302-1.846-.869-2.4-.417-.195-.916-.887-.846-1.268.162-.923.892-.485 1.518-.404.707.08 1.496 0 1.635-1.003.035-.266.104-.554.243-.773.452-.761.823-1.984 1.437-2.134 1.16-.3 2.214.842 2.539 2.122zm53.738 15.19c-1.437-.161-2.423-.945-2.284-1.834.186-1.176 2.017-3.149 2.782-2.814.87.38 2.342.138 2.388 1.58.047 1.28-1.878 3.184-2.886 3.068zm-15.974 1.788c-.035 1.119-1.38 2.123-2.469 1.88-.174-.034-.406.012-.533-.08-.638-.462-2.052-.277-1.611-1.685.463-1.5 1.588-2.11 2.851-1.545.696.3 1.89.127 1.762 1.43zm10.931-4.58c-.429 1.281-.869 2.089-2.04 1.477-.336-.173-.672-1.003-.533-1.303.823-1.673 1.588.219 2.573-.173zM49.048 29.506c1.737 6.342-3.455 12.465-10.04 11.39-1.748-.286-3.562-.386-5.187-.997-2.242-.829-3.355-2.717-3.935-5.058-.603-2.42-1-4.754.154-7.105 1.676-3.426 5.738-5.405 9.62-4.666 2.67.513 5.098 1.612 7.117 3.418.904.832 1.518 1.999 2.271 3.018zm-16.632 4.904c.016.055.02.198.07.327 1.425 3.467 1.899 4.23 4.992 4.08.548-.026 1.097.08 1.646.101 4.02.171 6.81-2.364 7.03-6.318.21-3.867-1.76-7.26-5.923-7.678-5.854-.589-9.505 3.768-7.815 9.488z" fill="#4A4A4A"/><path d="M41.345 36.666c-1.657.443-6.57-1.402-7.381-2.537-1.002-1.38-.233-2.766.295-3.903.642-1.41 1.6-2.769 3.314-3.312 1.91-.612 3.496.238 5.14.916 3.161 1.295 3.807 3.654 1.615 6.257-.848.99-1.986 1.727-2.983 2.58z" fill="#4A4A4A"/></svg>