<?xml version="1.0" encoding="UTF-8"?>
<svg width="120px" height="40px" viewBox="0 0 120 40" version="1.1" xmlns="http://www.w3.org/2000/svg" xmlns:xlink="http://www.w3.org/1999/xlink">
    <!-- Generator: sketchtool 64 (101010) - https://sketch.com -->
    <title>7C8F756B-A5FA-436E-9C51-62F4B2BD9A62</title>
    <desc>Created with sketchtool.</desc>
    <defs>
        <polygon id="path-1" points="0 0.04 119.664 0.04 119.664 40 0 40"></polygon>
    </defs>
    <g id="Home" stroke="none" stroke-width="1" fill="none" fill-rule="evenodd">
        <g id="Renewal-UI" transform="translate(-237.000000, -734.000000)">
            <g id="Group-86" transform="translate(237.000000, 734.000000)">
                <g id="Group-12">
                    <g id="Group-3" transform="translate(0.000000, 0.196000)">
                        <mask id="mask-2" fill="white">
                            <use xlink:href="#path-1"></use>
                        </mask>
                        <g id="Clip-2"></g>
                        <path d="M110.134,0 L9.535,0 C9.168,0 8.806,0 8.44,0.002 C8.134,0.004 7.83,0.01 7.521,0.015 C6.855,0.031 6.182,0.072 5.517,0.191 C4.848,0.309 4.226,0.509 3.616,0.818 C3.018,1.125 2.471,1.523 1.998,1.997 C1.519,2.471 1.123,3.02 0.819,3.618 C0.508,4.227 0.311,4.852 0.194,5.521 C0.074,6.184 0.032,6.854 0.015,7.523 C0.006,7.83 0.005,8.138 0,8.444 C0,8.807 0,9.17 0,9.536 L0,30.465 C0,30.834 0,31.195 0,31.559 C0.005,31.869 0.006,32.17 0.015,32.48 C0.032,33.15 0.074,33.82 0.194,34.482 C0.311,35.152 0.508,35.78 0.819,36.387 C1.123,36.982 1.519,37.531 1.998,38.001 C2.471,38.479 3.018,38.876 3.616,39.18 C4.226,39.492 4.848,39.69 5.517,39.811 C6.182,39.93 6.855,39.969 7.521,39.987 C7.83,39.994 8.134,39.998 8.44,39.998 C8.806,40 9.168,40 9.535,40 L110.134,40 C110.495,40 110.859,40 111.218,39.998 C111.524,39.998 111.836,39.994 112.141,39.987 C112.811,39.969 113.483,39.93 114.141,39.811 C114.811,39.69 115.433,39.492 116.049,39.18 C116.646,38.876 117.193,38.479 117.667,38.001 C118.142,37.531 118.539,36.982 118.847,36.387 C119.154,35.78 119.354,35.152 119.466,34.482 C119.59,33.82 119.628,33.15 119.653,32.48 C119.656,32.17 119.656,31.869 119.656,31.559 C119.664,31.195 119.664,30.834 119.664,30.465 L119.664,9.536 C119.664,9.17 119.664,8.807 119.656,8.444 C119.656,8.138 119.656,7.83 119.653,7.523 C119.628,6.854 119.59,6.184 119.466,5.521 C119.354,4.852 119.154,4.227 118.847,3.618 C118.539,3.02 118.142,2.471 117.667,1.997 C117.193,1.523 116.646,1.125 116.049,0.818 C115.433,0.509 114.811,0.309 114.141,0.191 C113.483,0.072 112.811,0.031 112.141,0.015 C111.836,0.01 111.524,0.004 111.218,0.002 C110.859,0 110.495,0 110.134,0" id="Fill-1" fill="#A9AAA9" mask="url(#mask-2)"></path>
                    </g>
                    <path d="M8.445,39.321 C8.14,39.321 7.843,39.317 7.541,39.31 C6.981,39.295 6.318,39.263 5.671,39.147 C5.061,39.037 4.519,38.857 4.015,38.599 C3.493,38.335 3.024,37.993 2.618,37.583 C2.204,37.176 1.863,36.71 1.597,36.186 C1.338,35.681 1.161,35.139 1.054,34.529 C0.932,33.856 0.901,33.174 0.888,32.654 C0.881,32.443 0.873,31.741 0.873,31.741 L0.873,8.64 C0.873,8.64 0.882,7.949 0.888,7.746 C0.901,7.222 0.932,6.54 1.053,5.874 C1.16,5.26 1.337,4.718 1.597,4.212 C1.862,3.687 2.203,3.218 2.612,2.814 C3.025,2.4 3.496,2.057 4.014,1.791 C4.528,1.53 5.069,1.352 5.667,1.247 C6.341,1.127 7.023,1.096 7.543,1.083 L8.445,1.071 L111.213,1.071 L112.126,1.084 C112.639,1.096 113.322,1.127 113.985,1.246 C114.587,1.352 115.133,1.531 115.656,1.794 C116.169,2.057 116.638,2.4 117.047,2.81 C117.458,3.216 117.799,3.688 118.071,4.214 C118.329,4.725 118.504,5.267 118.607,5.863 C118.722,6.494 118.758,7.142 118.78,7.75 C118.783,8.033 118.783,8.338 118.783,8.64 C118.792,9.015 118.792,9.372 118.792,9.732 L118.792,30.661 C118.792,31.024 118.792,31.379 118.783,31.736 C118.783,32.061 118.783,32.359 118.779,32.666 C118.758,33.255 118.722,33.902 118.608,34.519 C118.504,35.132 118.329,35.674 118.068,36.189 C117.799,36.709 117.456,37.178 117.053,37.575 C116.639,37.993 116.17,38.334 115.654,38.597 C115.134,38.861 114.605,39.036 113.985,39.147 C113.345,39.263 112.682,39.295 112.116,39.31 C111.824,39.317 111.516,39.321 111.218,39.321 L110.134,39.323 L8.445,39.321" id="Fill-4" fill="#000000"></path>
                    <path d="M24.769,20.497 C24.744,17.746 27.021,16.407 27.126,16.344 C25.836,14.464 23.836,14.207 23.134,14.187 C21.455,14.01 19.827,15.192 18.971,15.192 C18.099,15.192 16.782,14.204 15.363,14.234 C13.537,14.262 11.827,15.32 10.89,16.962 C8.956,20.31 10.399,25.231 12.251,27.937 C13.178,29.263 14.261,30.744 15.679,30.691 C17.066,30.634 17.584,29.806 19.258,29.806 C20.917,29.806 21.403,30.691 22.849,30.658 C24.337,30.634 25.275,29.326 26.17,27.988 C27.241,26.469 27.671,24.972 27.688,24.896 C27.653,24.884 24.797,23.795 24.769,20.497" id="Fill-5" fill="#FFFFFE"></path>
                    <path d="M22.037,12.407 C22.783,11.474 23.293,10.205 23.152,8.916 C22.072,8.964 20.722,9.663 19.944,10.576 C19.256,11.38 18.642,12.698 18.8,13.937 C20.013,14.028 21.259,13.325 22.037,12.407" id="Fill-6" fill="#FFFFFE"></path>
                    <path d="M38.059,25.787 L41.811,25.787 L39.961,20.34 L39.91,20.34 L38.059,25.787 Z M42.302,27.336 L37.569,27.336 L36.432,30.692 L34.427,30.692 L38.911,18.274 L40.994,18.274 L45.477,30.692 L43.438,30.692 L42.302,27.336 L42.302,27.336 Z" id="Fill-7" fill="#FFFFFE"></path>
                    <path d="M53.25,26.166 C53.25,24.333 52.302,23.128 50.857,23.128 C49.437,23.128 48.482,24.358 48.482,26.166 C48.482,27.99 49.437,29.212 50.857,29.212 C52.302,29.212 53.25,28.015 53.25,26.166 Z M55.16,26.166 C55.16,28.979 53.654,30.787 51.381,30.787 C50.091,30.787 49.067,30.21 48.533,29.203 L48.49,29.203 L48.49,33.687 L46.631,33.687 L46.631,21.638 L48.43,21.638 L48.43,23.144 L48.464,23.144 C48.981,22.173 50.083,21.544 51.347,21.544 C53.645,21.544 55.16,23.36 55.16,26.166 L55.16,26.166 Z" id="Fill-8" fill="#FFFFFE"></path>
                    <path d="M63.214,26.166 C63.214,24.333 62.267,23.128 60.822,23.128 C59.402,23.128 58.447,24.358 58.447,26.166 C58.447,27.99 59.402,29.212 60.822,29.212 C62.267,29.212 63.214,28.015 63.214,26.166 Z M65.124,26.166 C65.124,28.979 63.619,30.787 61.346,30.787 C60.056,30.787 59.032,30.21 58.498,29.203 L58.455,29.203 L58.455,33.687 L56.596,33.687 L56.596,21.638 L58.395,21.638 L58.395,23.144 L58.429,23.144 C58.946,22.173 60.047,21.544 61.312,21.544 C63.61,21.544 65.124,23.36 65.124,26.166 L65.124,26.166 Z" id="Fill-9" fill="#FFFFFE"></path>
                    <path d="M71.711,27.232 C71.848,28.464 73.045,29.272 74.679,29.272 C76.246,29.272 77.373,28.464 77.373,27.353 C77.373,26.389 76.693,25.812 75.084,25.417 L73.474,25.029 C71.194,24.478 70.135,23.412 70.135,21.681 C70.135,19.539 72.003,18.067 74.654,18.067 C77.278,18.067 79.077,19.539 79.137,21.681 L77.261,21.681 C77.149,20.442 76.124,19.694 74.628,19.694 C73.13,19.694 72.106,20.451 72.106,21.552 C72.106,22.43 72.76,22.947 74.361,23.343 L75.729,23.678 C78.277,24.281 79.336,25.304 79.336,27.121 C79.336,29.444 77.485,30.899 74.542,30.899 C71.788,30.899 69.928,29.478 69.808,27.232 L71.711,27.232" id="Fill-10" fill="#FFFFFE"></path>
                    <path d="M83.346,19.496 L83.346,21.638 L85.068,21.638 L85.068,23.11 L83.346,23.11 L83.346,28.101 C83.346,28.877 83.691,29.238 84.448,29.238 C84.637,29.238 84.939,29.212 85.059,29.195 L85.059,30.658 C84.853,30.71 84.44,30.744 84.027,30.744 C82.194,30.744 81.479,30.055 81.479,28.3 L81.479,23.11 L80.163,23.11 L80.163,21.638 L81.479,21.638 L81.479,19.496 L83.346,19.496" id="Fill-11" fill="#FFFFFE"></path>
                    <path d="M92.76,26.166 C92.76,24.212 91.865,23.058 90.359,23.058 C88.853,23.058 87.959,24.22 87.959,26.166 C87.959,28.128 88.853,29.272 90.359,29.272 C91.865,29.272 92.76,28.128 92.76,26.166 Z M86.065,26.166 C86.065,23.317 87.743,21.527 90.359,21.527 C92.984,21.527 94.654,23.317 94.654,26.166 C94.654,29.022 92.993,30.804 90.359,30.804 C87.726,30.804 86.065,29.022 86.065,26.166 L86.065,26.166 Z" id="Fill-12" fill="#FFFFFE"></path>
                    <path d="M96.186,21.638 L97.959,21.638 L97.959,23.179 L98.002,23.179 C98.286,22.155 99.112,21.544 100.179,21.544 C100.446,21.544 100.669,21.579 100.816,21.613 L100.816,23.351 C100.669,23.291 100.342,23.239 99.981,23.239 C98.785,23.239 98.045,24.049 98.045,25.322 L98.045,30.692 L96.186,30.692 L96.186,21.638" id="Fill-13" fill="#FFFFFE"></path>
                    <path d="M103.102,25.331 L107.628,25.331 C107.585,23.945 106.699,23.033 105.408,23.033 C104.126,23.033 103.197,23.963 103.102,25.331 Z M109.384,28.033 C109.134,29.677 107.534,30.804 105.486,30.804 C102.852,30.804 101.217,29.04 101.217,26.209 C101.217,23.369 102.861,21.527 105.408,21.527 C107.913,21.527 109.488,23.248 109.488,25.993 L109.488,26.63 L103.093,26.63 L103.093,26.742 C103.093,28.291 104.066,29.306 105.529,29.306 C106.561,29.306 107.371,28.816 107.62,28.033 L109.384,28.033 L109.384,28.033 Z" id="Fill-14" fill="#FFFFFE"></path>
                    <polyline id="Fill-15" fill="#FFFFFE" points="37.185 14.898 37.185 9.774 35.308 9.774 35.308 8.931 39.984 8.931 39.984 9.774 38.111 9.774 38.111 14.898 37.185 14.898"></polyline>
                    <path d="M41.644,8.215 C41.78,8.161 42.007,8.12 42.23,8.12 C42.822,8.12 43.206,8.434 43.206,8.931 C43.206,9.348 42.888,9.72 42.417,9.89 L42.077,9.452 C42.347,9.365 42.536,9.187 42.536,9.009 C42.536,8.827 42.358,8.695 42.106,8.695 C41.925,8.695 41.751,8.728 41.644,8.782 L41.644,8.215 Z M43.165,13.24 L43.165,12.863 L42.065,12.933 C41.445,12.975 41.164,13.186 41.164,13.583 C41.164,13.988 41.516,14.224 41.999,14.224 C42.669,14.224 43.165,13.798 43.165,13.24 Z M40.271,13.624 C40.271,12.814 40.874,12.346 41.945,12.28 L43.165,12.21 L43.165,11.821 C43.165,11.345 42.851,11.077 42.243,11.077 C41.747,11.077 41.403,11.259 41.305,11.577 L40.444,11.577 C40.535,10.804 41.263,10.308 42.284,10.308 C43.413,10.308 44.05,10.87 44.05,11.821 L44.05,14.898 L43.194,14.898 L43.194,14.265 L43.124,14.265 C42.855,14.716 42.363,14.972 41.771,14.972 C40.903,14.972 40.271,14.447 40.271,13.624 L40.271,13.624 Z" id="Fill-16" fill="#FFFFFE"></path>
                    <path d="M45.457,14.898 L46.343,14.898 L46.343,10.395 L45.457,10.395 L45.457,14.898 Z M45.325,9.063 C45.325,8.753 45.569,8.517 45.9,8.517 C46.23,8.517 46.475,8.753 46.475,9.063 C46.475,9.369 46.23,9.605 45.9,9.605 C45.569,9.605 45.325,9.369 45.325,9.063 L45.325,9.063 Z" id="Fill-17" fill="#FFFFFE"></path>
                    <polyline id="Fill-18" fill="#FFFFFE" points="52.41 14.898 51.455 14.898 49.83 10.395 50.78 10.395 51.901 13.946 51.972 13.946 53.088 10.395 54.031 10.395 52.41 14.898"></polyline>
                    <path d="M57.838,8.298 L56.916,7 L57.842,7 L58.632,8.298 L57.838,8.298 Z M55.567,12.231 L57.842,12.231 C57.821,11.524 57.392,11.064 56.733,11.064 C56.076,11.064 55.617,11.528 55.567,12.231 Z M58.38,9.779 L57.453,9.779 L56.771,8.935 L56.705,8.935 L56.022,9.779 L55.097,9.779 L56.254,8.41 L57.222,8.41 L58.38,9.779 Z M58.693,13.682 C58.491,14.488 57.771,14.985 56.742,14.985 C55.452,14.985 54.662,14.1 54.662,12.66 C54.662,11.221 55.469,10.308 56.738,10.308 C57.991,10.308 58.747,11.164 58.747,12.578 L58.747,12.888 L55.567,12.888 L55.567,12.938 C55.597,13.727 56.056,14.228 56.767,14.228 C57.305,14.228 57.673,14.033 57.838,13.682 L58.693,13.682 L58.693,13.682 Z" id="Fill-19" fill="#FFFFFE"></path>
                    <path d="M63.586,9.274 L63.586,10.415 L64.562,10.415 L64.562,11.164 L63.586,11.164 L63.586,13.479 C63.586,13.951 63.78,14.157 64.223,14.157 C64.359,14.157 64.437,14.149 64.562,14.137 L64.562,14.877 C64.417,14.902 64.252,14.923 64.078,14.923 C63.09,14.923 62.696,14.575 62.696,13.707 L62.696,11.164 L61.981,11.164 L61.981,10.415 L62.696,10.415 L62.696,9.274 L63.586,9.274" id="Fill-20" fill="#FFFFFE"></path>
                    <path d="M65.735,10.395 L66.59,10.395 L66.59,11.085 L66.657,11.085 C66.785,10.643 67.285,10.32 67.873,10.32 C68.004,10.32 68.174,10.332 68.269,10.357 L68.269,11.234 C68.195,11.209 67.93,11.18 67.773,11.18 C67.099,11.18 66.624,11.606 66.624,12.239 L66.624,14.898 L65.735,14.898 L65.735,10.395" id="Fill-21" fill="#FFFFFE"></path>
                    <path d="M69.817,12.231 L72.091,12.231 C72.071,11.524 71.641,11.064 70.983,11.064 C70.326,11.064 69.867,11.528 69.817,12.231 Z M72.624,9.779 L71.711,9.779 L71.02,8.873 L70.955,8.873 L70.264,9.779 L69.346,9.779 L70.503,8.348 L71.471,8.348 L72.624,9.779 Z M72.943,13.682 C72.741,14.488 72.021,14.985 70.992,14.985 C69.702,14.985 68.912,14.1 68.912,12.66 C68.912,11.221 69.718,10.308 70.988,10.308 C72.241,10.308 72.997,11.164 72.997,12.578 L72.997,12.888 L69.817,12.888 L69.817,12.938 C69.846,13.727 70.305,14.228 71.016,14.228 C71.554,14.228 71.922,14.033 72.087,13.682 L72.943,13.682 L72.943,13.682 Z" id="Fill-22" fill="#FFFFFE"></path>
                    <path d="M74.19,10.395 L75.045,10.395 L75.045,11.11 L75.112,11.11 C75.331,10.61 75.778,10.308 76.456,10.308 C77.461,10.308 78.014,10.911 78.014,11.983 L78.014,14.898 L77.126,14.898 L77.126,12.206 C77.126,11.482 76.811,11.122 76.154,11.122 C75.497,11.122 75.079,11.561 75.079,12.263 L75.079,14.898 L74.19,14.898 L74.19,10.395" id="Fill-23" fill="#FFFFFE"></path>
                </g>
            </g>
        </g>
    </g>
</svg>