<svg width="135" height="40" xmlns="http://www.w3.org/2000/svg" xmlns:xlink="http://www.w3.org/1999/xlink"><defs><path d="M1.435.538c-.29.308-.462.786-.462 1.405v22.116c0 .62.172 1.098.462 1.405l.074.072 12.39-12.389v-.292L1.509.465l-.074.073z" id="a"/><path d="M.899 4.855v.292l4.129 4.131.094-.052 4.893-2.78c1.397-.795 1.397-2.095 0-2.888L5.122.777 5.029.724.899 4.855z" id="c"/><path d="M.435 12.464c.461.487 1.222.548 2.079.062l14.608-8.301L12.899.001.435 12.464z" id="e"/><path d="M.435.538l12.464 12.463 4.223-4.224L2.514.477C2.112.248 1.731.14 1.393.14a1.28 1.28 0 00-.958.398" id="h"/><linearGradient x1="86.246%" y1="30.902%" x2="-50.137%" y2="136.01%" id="f"><stop stop-color="#FF3A44" offset="0%"/><stop stop-color="#C31162" offset="100%"/></linearGradient></defs><g fill="none" fill-rule="evenodd"><path d="M130 40H5c-2.75 0-5-2.25-5-5V5c0-2.75 2.25-5 5-5h125c2.75 0 5 2.25 5 5v30c0 2.75-2.25 5-5 5" fill="#000"/><path d="M130 0H5C2.25 0 0 2.25 0 5v30c0 2.75 2.25 5 5 5h125c2.75 0 5-2.25 5-5V5c0-2.75-2.25-5-5-5m0 .8c2.316 0 4.2 1.884 4.2 4.2v30c0 2.316-1.884 4.2-4.2 4.2H5A4.205 4.205 0 01.8 35V5C.8 2.684 2.684.8 5 .8h125" fill="#A6A6A6"/><path d="M106.937 30h1.865V17.499h-1.865V30zm16.806-7.998l-2.139 5.42h-.064l-2.22-5.42h-2.009l3.329 7.575-1.899 4.214h1.946l5.131-11.789h-2.075zM113.16 28.58c-.61 0-1.463-.306-1.463-1.061 0-.965 1.062-1.335 1.979-1.335.819 0 1.206.177 1.704.418a2.262 2.262 0 01-2.22 1.978zm.226-6.851c-1.351 0-2.75.595-3.329 1.914l1.656.691c.354-.691 1.014-.917 1.705-.917.965 0 1.946.579 1.962 1.608v.129c-.338-.193-1.062-.482-1.946-.482-1.786 0-3.603.981-3.603 2.814 0 1.673 1.464 2.751 3.105 2.751 1.253 0 1.946-.563 2.379-1.223h.065v.965h1.802v-4.792c0-2.22-1.658-3.458-3.796-3.458zm-11.532 1.795H99.2v-4.285h2.654c1.395 0 2.187 1.155 2.187 2.142 0 .969-.792 2.143-2.187 2.143zm-.048-6.025h-4.471V30H99.2v-4.736h2.606c2.068 0 4.101-1.497 4.101-3.883 0-2.385-2.033-3.882-4.101-3.882zM77.425 28.583c-1.289 0-2.368-1.08-2.368-2.562 0-1.499 1.079-2.594 2.368-2.594 1.272 0 2.271 1.095 2.271 2.594 0 1.482-.999 2.562-2.271 2.562zm2.142-5.881h-.064c-.419-.499-1.225-.951-2.239-.951-2.127 0-4.076 1.87-4.076 4.27 0 2.384 1.949 4.237 4.076 4.237 1.014 0 1.82-.451 2.239-.966h.064v.611c0 1.628-.87 2.497-2.271 2.497-1.144 0-1.853-.821-2.143-1.514l-1.627.677c.467 1.127 1.707 2.513 3.77 2.513 2.191 0 4.044-1.289 4.044-4.43v-7.637h-1.773v.693zM82.629 30h1.868V17.499h-1.868V30zm4.623-4.124c-.048-1.644 1.273-2.481 2.224-2.481.741 0 1.369.371 1.579.902l-3.803 1.579zm5.8-1.418c-.355-.95-1.434-2.707-3.641-2.707-2.191 0-4.012 1.725-4.012 4.254 0 2.384 1.805 4.253 4.221 4.253 1.949 0 3.077-1.192 3.545-1.885l-1.45-.967c-.484.709-1.144 1.177-2.095 1.177-.95 0-1.627-.436-2.061-1.29l5.686-2.352-.193-.483zm-45.308-1.401v1.804h4.318c-.129 1.015-.468 1.756-.983 2.271-.629.629-1.612 1.322-3.335 1.322-2.659 0-4.737-2.143-4.737-4.801 0-2.658 2.078-4.801 4.737-4.801 1.434 0 2.481.564 3.254 1.289l1.273-1.273c-1.08-1.031-2.513-1.821-4.527-1.821-3.641 0-6.702 2.965-6.702 6.606 0 3.64 3.061 6.605 6.702 6.605 1.965 0 3.447-.645 4.607-1.853 1.192-1.192 1.563-2.867 1.563-4.221 0-.418-.032-.805-.097-1.127h-6.073zm11.078 5.526c-1.288 0-2.4-1.064-2.4-2.578 0-1.531 1.112-2.578 2.4-2.578 1.289 0 2.401 1.047 2.401 2.578 0 1.514-1.112 2.578-2.401 2.578zm0-6.832c-2.352 0-4.269 1.789-4.269 4.254 0 2.449 1.917 4.253 4.269 4.253 2.353 0 4.27-1.804 4.27-4.253 0-2.465-1.917-4.254-4.27-4.254zm9.314 6.832c-1.289 0-2.401-1.064-2.401-2.578 0-1.531 1.112-2.578 2.401-2.578 1.289 0 2.4 1.047 2.4 2.578 0 1.514-1.111 2.578-2.4 2.578zm0-6.832c-2.352 0-4.269 1.789-4.269 4.254 0 2.449 1.917 4.253 4.269 4.253 2.352 0 4.269-1.804 4.269-4.253 0-2.465-1.917-4.254-4.269-4.254z" fill="#FFF"/><g transform="translate(9 7)"><mask id="b" fill="#fff"><use xlink:href="#a"/></mask><use fill="#00CFFF" xlink:href="#a"/><path d="M1.435.538c-.29.308-.462.786-.462 1.405v22.116c0 .62.172 1.098.462 1.405l.074.072 12.39-12.389v-.292L1.509.465l-.074.073z" mask="url(#b)"/></g><g transform="translate(22 15)"><mask id="d" fill="#fff"><use xlink:href="#c"/></mask><use fill="#FFCD00" xlink:href="#c"/><path d="M.899 4.855v.292l4.129 4.131.094-.052 4.893-2.78c1.397-.795 1.397-2.095 0-2.888L5.122.777 5.029.724.899 4.855z" mask="url(#d)"/></g><g transform="translate(10 20)"><mask id="g" fill="#fff"><use xlink:href="#e"/></mask><use fill="#00F076" xlink:href="#e"/><path d="M.435 12.464c.461.487 1.222.548 2.079.062l14.608-8.301L12.899.001.435 12.464z" fill="url(#f)" mask="url(#g)"/></g><g transform="translate(10 7)"><mask id="i" fill="#fff"><use xlink:href="#h"/></mask><use fill="#00F076" xlink:href="#h"/><path d="M.435.538l12.464 12.463 4.223-4.224L2.514.477C2.112.248 1.731.14 1.393.14a1.28 1.28 0 00-.958.398" mask="url(#i)"/></g><path d="M27.029 24.132L12.514 32.38c-.812.46-1.538.43-2.004.01l-.074.075.073.072v-.001c.467.42 1.193.45 2.005-.01l14.608-8.301-.093-.093zM10.435 32.318c-.29-.308-.463-.786-.463-1.405v.146c0 .62.173 1.097.463 1.405l.074-.074-.074-.072zM32.015 21.299l-4.986 2.833.093.093 4.893-2.78c.699-.397 1.048-.92 1.048-1.443-.06.473-.414.937-1.048 1.297" fill="#000"/><path d="M12.514 7.623l19.5 11.08c.635.36.99.824 1.049 1.298 0-.523-.35-1.047-1.048-1.444L12.514 7.477c-1.398-.794-2.541-.134-2.541 1.466v.146c0-1.6 1.143-2.26 2.54-1.466M43.689 12.697h-.736V7.673h-1.6V6.97h3.936v.704h-1.6z" fill="#FFF"/><path stroke="#FFF" stroke-width=".2" d="M43.689 12.697h-.736V7.673h-1.6V6.97h3.936v.704h-1.6z"/><path d="M47.229 6.924c.128-.344.416-.408.416-.67 0-.154-.112-.249-.264-.249-.168 0-.303.144-.4.28l-.264-.16c.145-.288.384-.536.792-.536.367 0 .663.248.663.576 0 .407-.359.495-.575.863l-.368-.104zm.976 3.534l-.528-1.55c-.12-.353-.2-.672-.28-.984h-.016c-.08.32-.168.647-.272.975l-.527 1.56h1.623zm-1.767.544l-.56 1.695h-.719l1.831-5.389h.839l1.838 5.39h-.743l-.576-1.696h-1.91z" fill="#FFF"/><path d="M47.229 6.924c.128-.344.416-.408.416-.67 0-.154-.112-.249-.264-.249-.168 0-.303.144-.4.28l-.264-.16c.145-.288.384-.536.792-.536.367 0 .663.248.663.576 0 .407-.359.495-.575.863l-.368-.104zm.976 3.534l-.528-1.55c-.12-.353-.2-.672-.28-.984h-.016c-.08.32-.168.647-.272.975l-.527 1.56h1.623zm-1.767.544l-.56 1.695h-.719l1.831-5.389h.839l1.838 5.39h-.743l-.576-1.696h-1.91z" stroke="#FFF" stroke-width=".2"/><path fill="#FFF" d="M50.474 12.697h.735V6.969h-.735z"/><path stroke="#FFF" stroke-width=".2" d="M50.474 12.697h.735V6.969h-.735z"/><path fill="#FFF" d="M54.122 12.697V6.97h.896l2.784 4.456h.032l-.032-1.104V6.97h.736v5.728h-.77l-2.911-4.672h-.031l.03 1.104v3.568z"/><path stroke="#FFF" stroke-width=".2" d="M54.122 12.697V6.97h.896l2.784 4.456h.032l-.032-1.104V6.97h.736v5.728h-.77l-2.911-4.672h-.031l.03 1.104v3.568z"/><path d="M61.624 13.737c0-.208.176-.4.408-.4.217 0 .385.192.385.4 0 .208-.169.408-.392.408-.224 0-.4-.2-.4-.408zm.657-7.652l.839.91h-.592l-.511-.55H62l-.504.55h-.575l.824-.91h.536zm-1.983 3.95c0 1.15.623 2.183 1.718 2.183 1.104 0 1.727-1.016 1.727-2.24 0-1.071-.559-2.19-1.718-2.19-1.151 0-1.727 1.064-1.727 2.247zm4.18-.088c0 1.855-1.125 2.838-2.5 2.838-1.425 0-2.424-1.103-2.424-2.734 0-1.711 1.063-2.831 2.502-2.831 1.472 0 2.422 1.128 2.422 2.727z" fill="#FFF"/><path d="M61.624 13.737c0-.208.176-.4.408-.4.217 0 .385.192.385.4 0 .208-.169.408-.392.408-.224 0-.4-.2-.4-.408zm.657-7.652l.839.91h-.592l-.511-.55H62l-.504.55h-.575l.824-.91h.536zm-1.983 3.95c0 1.15.623 2.183 1.718 2.183 1.104 0 1.727-1.016 1.727-2.24 0-1.071-.559-2.19-1.718-2.19-1.151 0-1.727 1.064-1.727 2.247zm4.18-.088c0 1.855-1.125 2.838-2.5 2.838-1.425 0-2.424-1.103-2.424-2.734 0-1.711 1.063-2.831 2.502-2.831 1.472 0 2.422 1.128 2.422 2.727z" stroke="#FFF" stroke-width=".2"/><path fill="#FFF" d="M65.517 12.697h.735V6.969h-.735z"/><path stroke="#FFF" stroke-width=".2" d="M65.517 12.697h.735V6.969h-.735z"/><path d="M69.9 11.993h1.017c.661 0 1.185-.189 1.572-.568.387-.378.58-.909.58-1.592 0-.677-.193-1.206-.58-1.588-.387-.38-.91-.572-1.572-.572H69.9v4.32zm-.735.704V6.97h1.752c.88 0 1.584.265 2.112.796.527.531.792 1.22.792 2.068 0 .848-.265 1.537-.792 2.068-.528.531-1.233.796-2.112.796h-1.752z" fill="#FFF"/><path d="M69.9 11.993h1.017c.661 0 1.185-.189 1.572-.568.387-.378.58-.909.58-1.592 0-.677-.193-1.206-.58-1.588-.387-.38-.91-.572-1.572-.572H69.9v4.32zm-.735.704V6.97h1.752c.88 0 1.584.265 2.112.796.527.531.792 1.22.792 2.068 0 .848-.265 1.537-.792 2.068-.528.531-1.233.796-2.112.796h-1.752z" stroke="#FFF" stroke-width=".2"/><path d="M76.883 12.825c-.63 0-1.141-.208-1.532-.624-.393-.416-.588-.96-.588-1.632v-3.6h.735v3.632c0 .453.119.82.357 1.1.237.28.58.42 1.028.42.447 0 .79-.14 1.027-.42.238-.28.357-.647.357-1.1V6.97h.736v3.6c0 .677-.191 1.223-.572 1.636-.382.413-.898.62-1.548.62" fill="#FFF"/><path d="M76.883 12.825c-.63 0-1.141-.208-1.532-.624-.393-.416-.588-.96-.588-1.632v-3.6h.735v3.632c0 .453.119.82.357 1.1.237.28.58.42 1.028.42.447 0 .79-.14 1.027-.42.238-.28.357-.647.357-1.1V6.97h.736v3.6c0 .677-.191 1.223-.572 1.636-.382.413-.898.62-1.548.62z" stroke="#FFF" stroke-width=".2"/><path fill="#FFF" d="M80.257 12.697V6.97h.896l2.784 4.456h.032l-.032-1.104V6.97h.736v5.728h-.77l-2.911-4.672h-.031l.03 1.104v3.568z"/><path stroke="#FFF" stroke-width=".2" d="M80.257 12.697V6.97h.896l2.784 4.456h.032l-.032-1.104V6.97h.736v5.728h-.77l-2.911-4.672h-.031l.03 1.104v3.568z"/><path d="M91.502 10.065c0 .8-.237 1.437-.712 1.912-.539.566-1.24.848-2.103.848-.828 0-1.531-.287-2.109-.86-.579-.573-.868-1.284-.868-2.132 0-.848.289-1.559.868-2.132.578-.574 1.281-.86 2.109-.86.41 0 .801.08 1.175.24.373.16.672.373.896.64l-.504.504c-.379-.453-.901-.68-1.567-.68a2.18 2.18 0 00-1.565.636c-.44.424-.66.975-.66 1.652 0 .677.22 1.228.66 1.652a2.18 2.18 0 001.565.636c.639 0 1.172-.213 1.599-.64.278-.277.438-.664.48-1.16h-2.079v-.688h2.775c.026.15.04.293.04.432" fill="#FFF"/><path d="M91.502 10.065c0 .8-.237 1.437-.712 1.912-.539.566-1.24.848-2.103.848-.828 0-1.531-.287-2.109-.86-.579-.573-.868-1.284-.868-2.132 0-.848.289-1.559.868-2.132.578-.574 1.281-.86 2.109-.86.41 0 .801.08 1.175.24.373.16.672.373.896.64l-.504.504c-.379-.453-.901-.68-1.567-.68a2.18 2.18 0 00-1.565.636c-.44.424-.66.975-.66 1.652 0 .677.22 1.228.66 1.652a2.18 2.18 0 001.565.636c.639 0 1.172-.213 1.599-.64.278-.277.438-.664.48-1.16h-2.079v-.688h2.775c.026.15.04.293.04.432z" stroke="#FFF" stroke-width=".2"/><path fill="#FFF" d="M96.11 12.697h-.736V7.673h-1.6V6.97h3.936v.704h-1.6z"/><path stroke="#FFF" stroke-width=".2" d="M96.11 12.697h-.736V7.673h-1.6V6.97h3.936v.704h-1.6z"/><path d="M99.267 9.69h1.185c.293 0 .544-.096.755-.288a.943.943 0 00.317-.728c0-.252-.094-.48-.28-.688-.187-.208-.435-.313-.745-.313h-1.232V9.69zm-.735 3.008V6.968h1.952c.485 0 .905.161 1.26.484.354.324.532.73.532 1.22 0 .4-.131.754-.393 1.06-.261.307-.587.5-.975.58l-.017.023 1.608 2.33v.031h-.872l-1.544-2.32h-.816v2.32h-.735z" fill="#FFF"/><path d="M99.267 9.69h1.185c.293 0 .544-.096.755-.288a.943.943 0 00.317-.728c0-.252-.094-.48-.28-.688-.187-.208-.435-.313-.745-.313h-1.232V9.69zm-.735 3.008V6.968h1.952c.485 0 .905.161 1.26.484.354.324.532.73.532 1.22 0 .4-.131.754-.393 1.06-.261.307-.587.5-.975.58l-.017.023 1.608 2.33v.031h-.872l-1.544-2.32h-.816v2.32h-.735z" stroke="#FFF" stroke-width=".2"/><path d="M103.864 6.473v-.04l.824-.936h.641l.823.936v.04h-.712l-.399-.48h-.065l-.399.48h-.713zm2.816 1.2h-2.608V9.49h2.353v.688h-2.353v1.816h2.608v.704h-3.343V6.97h3.343v.704z" fill="#FFF"/><path d="M103.864 6.473v-.04l.824-.936h.641l.823.936v.04h-.712l-.399-.48h-.065l-.399.48h-.713zm2.816 1.2h-2.608V9.49h2.353v.688h-2.353v1.816h2.608v.704h-3.343V6.97h3.343v.704z" stroke="#FFF" stroke-width=".2"/><path fill="#FFF" d="M107.751 12.697V6.97h.896l2.784 4.456h.032l-.032-1.104V6.97h.736v5.728h-.769l-2.912-4.672h-.031l.031 1.104v3.568z"/><path stroke="#FFF" stroke-width=".2" d="M107.751 12.697V6.97h.896l2.784 4.456h.032l-.032-1.104V6.97h.736v5.728h-.769l-2.912-4.672h-.031l.031 1.104v3.568z"/></g></svg>